<svg xmlns="http://www.w3.org/2000/svg" width="24.356" height="24.356" viewBox="0 0 24.356 24.356">
  <path id="dribbble-color" d="M11.178,22.356A12.178,12.178,0,1,1,23.356,10.178,12.19,12.19,0,0,1,11.178,22.356Zm10.27-10.512a15.244,15.244,0,0,0-6.479-.443,45.276,45.276,0,0,1,2.022,7.416,10.42,10.42,0,0,0,4.457-6.973h0Zm-6.207,7.924a43.365,43.365,0,0,0-2.216-7.887.7.7,0,0,0-.067.024C7.088,13.951,4.98,18.019,4.8,18.4a10.374,10.374,0,0,0,10.447,1.37l0,0ZM3.448,17.147A16.522,16.522,0,0,1,11.9,10.283c.134-.042.271-.085.409-.123-.262-.591-.547-1.184-.842-1.764A38.575,38.575,0,0,1,.779,9.88c0,.105,0,.21,0,.318a10.361,10.361,0,0,0,2.673,6.95v0ZM1,8.061A39.016,39.016,0,0,0,10.617,6.8,65.484,65.484,0,0,0,6.76.778,10.433,10.433,0,0,0,1,8.061H1ZM8.742.08a55.775,55.775,0,0,1,3.882,6.089A11.7,11.7,0,0,0,18.075,2.41a10.35,10.35,0,0,0-6.9-2.621,10.791,10.791,0,0,0-2.435.29h0ZM19.232,3.619a13.9,13.9,0,0,1-5.809,4.1c.242.494.476,1,.69,1.509.076.181.152.356.224.537a24.522,24.522,0,0,1,7.245.333,10.377,10.377,0,0,0-2.35-6.479h0Z" transform="translate(1 2)" fill="#ea4c89" fill-rule="evenodd"/>
</svg>
