<svg xmlns="http://www.w3.org/2000/svg" xmlns:xlink="http://www.w3.org/1999/xlink" width="23.926" height="23.942" viewBox="0 0 23.926 23.942">
  <defs>
    <linearGradient id="linear-gradient" x1="0.5" x2="0.5" y2="1" gradientUnits="objectBoundingBox">
      <stop offset="0" stop-color="#111d2e"/>
      <stop offset="0.212" stop-color="#051839"/>
      <stop offset="0.407" stop-color="#0a1b48"/>
      <stop offset="0.581" stop-color="#132e62"/>
      <stop offset="0.738" stop-color="#144b7e"/>
      <stop offset="0.873" stop-color="#136497"/>
      <stop offset="1" stop-color="#1387b8"/>
    </linearGradient>
  </defs>
  <g id="steampowered-icon" transform="translate(0 0)">
    <path id="Path_1067" data-name="Path 1067" d="M.545-32.107a11.978,11.978,0,0,0,11.468,8.529A11.972,11.972,0,0,0,23.986-35.549,11.971,11.971,0,0,0,12.015-47.52,11.973,11.973,0,0,0,.069-36.344a4.374,4.374,0,0,1,.477,4.238Z" transform="translate(-0.06 47.52)" fill="url(#linear-gradient)"/>
    <path id="Path_1068" data-name="Path 1068" d="M11.662,16.752v.064L8.656,21.433a3.21,3.21,0,0,0-1.44.269,3.3,3.3,0,0,0-.575.321L.036,19.15A15.216,15.216,0,0,0,.52,23.786l4.669,2.036A3.544,3.544,0,0,0,7.2,28.367a3.348,3.348,0,0,0,4.457-1.941,3.789,3.789,0,0,0,.263-1.484l4.3-3.249.106,0A4.817,4.817,0,0,0,21,16.752a4.817,4.817,0,0,0-4.669-4.941,4.816,4.816,0,0,0-4.669,4.941Zm-.722,9.355a2.584,2.584,0,0,1-3.439,1.5,2.682,2.682,0,0,1-1.354-1.365l1.52.666A1.9,1.9,0,0,0,10.2,25.8a2.093,2.093,0,0,0-1.043-2.679l-1.575-.688a2.484,2.484,0,0,1,1.94.031,2.678,2.678,0,0,1,1.42,1.51,2.915,2.915,0,0,1,0,2.129m5.394-6.062a3.3,3.3,0,0,1,0-6.585,3.3,3.3,0,0,1,0,6.585M14,16.748a2.34,2.34,0,1,1,2.335,2.473A2.408,2.408,0,0,1,14,16.748Z" transform="translate(-0.02 -8.084)" fill="#fff"/>
  </g>
</svg>
