<svg id="udemy" xmlns="http://www.w3.org/2000/svg" width="24.827" height="20.298" viewBox="0 0 24.827 20.298">
  <path id="Path_1069" data-name="Path 1069" d="M24.411,11.57a.656.656,0,0,0-.291-.137,14.009,14.009,0,0,1-2.081,1.734,1.918,1.918,0,0,1-.974.313c-.6,0-.867-.576-.946-1.491-.105-1.23-.176-2.7-.176-4.979,0-2.334-.529-3.922-1.942-4.045a1.812,1.812,0,0,0-.184-.008c-.867,0-1.287.445-1.839,1.57-.473.968-1.208,2.38-2.572,5.049a35.846,35.846,0,0,1-3.623,5.756,3.953,3.953,0,0,1-.8.814.822.822,0,0,1-.463.154c-.447,0-.772-.376-.879-1.251a5.71,5.71,0,0,1-.04-.711c0-1.8.683-4.734,1.863-9.052C10.336,2.146,9.968,0,8.077,0H8.054A1.8,1.8,0,0,0,6.929.43a4.137,4.137,0,0,0-.988,1.606C5.587,2.9,3.432,7.227,0,9.454a1.6,1.6,0,0,0,1.41,1.784,3.389,3.389,0,0,0,2.32-.832c-.061.271-.117.523-.168.754-.061.273-.111.507-.154.7-.061.283-.1.465-.113.515a14.349,14.349,0,0,0-.244,1.469C2.569,18.165,4.571,20.3,6.919,20.3a4.694,4.694,0,0,0,1.168-.145c2.586-.655,5.076-3.623,8.021-10.45a19.529,19.529,0,0,0-.018,2.081c.194,3.914,1.742,5.088,3.93,5.088a5.12,5.12,0,0,0,3.991-1.936,3.827,3.827,0,0,0,.814-2.251,1.416,1.416,0,0,0-.414-1.115Z" transform="translate(0.002)" fill="#ea5252" fill-rule="evenodd"/>
</svg>
