<svg id="g12" xmlns="http://www.w3.org/2000/svg" width="17" height="17" viewBox="0 0 17 17">
  <path id="path14" d="M31.167-60.231a8.5,8.5,0,0,1,8.5,8.5,8.5,8.5,0,0,1-8.5,8.5,8.5,8.5,0,0,1-8.5-8.5,8.5,8.5,0,0,1,8.5-8.5" transform="translate(-22.667 60.231)" fill="#ee2736" fill-rule="evenodd"/>
  <path id="path16" d="M30.214-47.231c.065-.9,1.827-1.083,2.039,0v3.383c0,4.333-6.921,2.423-4.115.2.657.909,1.917.848,2.051-.049Zm7.849.68a2.672,2.672,0,0,1,2.708,2.635,2.672,2.672,0,0,1-2.708,2.635,2.673,2.673,0,0,1-2.709-2.635A2.673,2.673,0,0,1,38.063-46.551Zm0,1.515a1.092,1.092,0,0,1,1.062,1.12,1.092,1.092,0,0,1-1.062,1.12A1.092,1.092,0,0,1,37-43.916,1.092,1.092,0,0,1,38.063-45.036Zm-4.413-3.715h.382a.8.8,0,0,1,.8.8v.2a.8.8,0,0,1-.8.8h-.382a.8.8,0,0,1-.8-.8v-.2A.8.8,0,0,1,33.649-48.751Zm.014,2.321h.354a.818.818,0,0,1,.817.814V-42.2a.819.819,0,0,1-.817.815h-.354a.819.819,0,0,1-.817-.815v-3.413a.818.818,0,0,1,.817-.814" transform="translate(-25.769 52.827)" fill="#fff" fill-rule="evenodd"/>
</svg>
