<svg id="figma" xmlns="http://www.w3.org/2000/svg" width="15.182" height="22.773" viewBox="0 0 15.182 22.773">
  <path id="Path_1062" data-name="Path 1062" d="M3.8,89.511a3.8,3.8,0,0,0,3.8-3.8v-3.8H3.8a3.8,3.8,0,1,0,0,7.591Z" transform="translate(0 -66.738)" fill="#0acf83"/>
  <path id="Path_1063" data-name="Path 1063" d="M0,44.756a3.8,3.8,0,0,1,3.8-3.8h3.8v7.591H3.8a3.8,3.8,0,0,1-3.8-3.8Z" transform="translate(0 -33.369)" fill="#a259ff"/>
  <path id="Path_1064" data-name="Path 1064" d="M0,3.8A3.8,3.8,0,0,1,3.8,0h3.8V7.591H3.8A3.8,3.8,0,0,1,0,3.8Z" fill="#f24e1e"/>
  <path id="Path_1065" data-name="Path 1065" d="M40.96,0h3.8a3.8,3.8,0,1,1,0,7.591h-3.8V0Z" transform="translate(-33.369)" fill="#ff7262"/>
  <path id="Path_1066" data-name="Path 1066" d="M48.551,44.756a3.8,3.8,0,1,1-3.8-3.8,3.8,3.8,0,0,1,3.8,3.8Z" transform="translate(-33.369 -33.369)" fill="#1abcfe"/>
</svg>
