<svg xmlns="http://www.w3.org/2000/svg" xmlns:xlink="http://www.w3.org/1999/xlink" width="50.325" height="46.36" viewBox="0 0 50.325 46.36">
  <defs>
    <linearGradient id="linear-gradient" x1="0.5" x2="0.5" y2="1" gradientUnits="objectBoundingBox">
      <stop offset="0" stop-color="#fff"/>
      <stop offset="1" stop-color="#fff" stop-opacity="0"/>
    </linearGradient>
  </defs>
  <g id="Group_539" data-name="Group 539" transform="translate(-8445.873 -62.04)">
    <g id="Light" transform="translate(8445.873 62.04)">
      <rect id="Rectangle_1606" data-name="Rectangle 1606" width="35" height="2" rx="1" transform="translate(6.663)" fill="#fff"/>
      <path id="Path_1078" data-name="Path 1078" d="M45.638,47,38.044,91.36H88.369L79,47Z" transform="translate(-38.044 -45)" opacity="0.5" fill="url(#linear-gradient)"/>
    </g>
    <g id="Group_463" data-name="Group 463" transform="translate(290 -216)" opacity="0.5">
      <path id="Path_1141" data-name="Path 1141" d="M320.638,172.88a1.264,1.264,0,1,0-.892-.37,1.263,1.263,0,0,0,.892.37Zm0-1.8h0a.541.541,0,1,1-.541.541.541.541,0,0,1,.541-.541Z" transform="translate(7859.907 133.948)" fill="none" stroke="#fff" stroke-width="0.35"/>
      <path id="Path_1142" data-name="Path 1142" d="M145.434,310.62h-.722a.361.361,0,1,0,0,.722h.722a.361.361,0,1,0,0-.722Z" transform="translate(8027.715 -0.534)" fill="none" stroke="#fff" stroke-width="0.35"/>
      <path id="Path_1143" data-name="Path 1143" d="M145.434,345.62h-.722a.361.361,0,1,0,0,.722h.722a.361.361,0,1,0,0-.722Z" transform="translate(8027.715 -34.091)" fill="none" stroke="#fff" stroke-width="0.35"/>
      <path id="Path_1144" data-name="Path 1144" d="M145.434,380.62h-.722a.361.361,0,1,0,0,.722h.722a.361.361,0,1,0,0-.722Z" transform="translate(8027.715 -67.648)" fill="none" stroke="#fff" stroke-width="0.35"/>
      <path id="Path_1145" data-name="Path 1145" d="M145.434,415.62h-.722a.361.361,0,1,0,0,.722h.722a.361.361,0,1,0,0-.722Z" transform="translate(8027.715 -101.205)" fill="none" stroke="#fff" stroke-width="0.35"/>
      <path id="Path_1146" data-name="Path 1146" d="M521.2,311.342h.722a.361.361,0,1,0,0-.722H521.2a.361.361,0,1,0,0,.722Z" transform="translate(7666.749 -0.534)" fill="none" stroke="#fff" stroke-width="0.35"/>
      <path id="Path_1147" data-name="Path 1147" d="M521.2,346.342h.722a.361.361,0,1,0,0-.722H521.2a.361.361,0,1,0,0,.722Z" transform="translate(7666.749 -34.091)" fill="none" stroke="#fff" stroke-width="0.35"/>
      <path id="Path_1148" data-name="Path 1148" d="M521.2,381.342h.722a.361.361,0,1,0,0-.722H521.2a.361.361,0,1,0,0,.722Z" transform="translate(7666.749 -67.648)" fill="none" stroke="#fff" stroke-width="0.35"/>
      <path id="Path_1149" data-name="Path 1149" d="M521.2,416.342h.722a.361.361,0,1,0,0-.722H521.2a.361.361,0,1,0,0,.722Z" transform="translate(7666.749 -101.205)" fill="none" stroke="#fff" stroke-width="0.35"/>
      <path id="Path_1150" data-name="Path 1150" d="M241.694,275.62h-.722a.361.361,0,1,0,0,.722h.722a.361.361,0,1,0,0-.722Z" transform="translate(7935.424 33.023)" fill="none" stroke="#fff" stroke-width="0.35"/>
      <path id="Path_1151" data-name="Path 1151" d="M424.712,276.342h.722a.361.361,0,1,0,0-.722h-.722a.361.361,0,1,0,0,.722Z" transform="translate(7759.26 33.023)" fill="none" stroke="#fff" stroke-width="0.35"/>
      <path id="Path_1152" data-name="Path 1152" d="M92.369,37.04v-.424a1.082,1.082,0,0,0-.541-.936V29.66a.73.73,0,0,0,.722-.737v-.752a.73.73,0,0,0-.722-.737H88.22v.722h3.608v.783h-.361a.361.361,0,0,0-.361.361v6.235H87.5V26.655h0a1.085,1.085,0,0,0-1.082-1.086H84.778c.01-.1.015-.2.015-.3h0a3.26,3.26,0,0,0-2.886-3.239V20.29c.164-.112.334-.056.734.155a2.016,2.016,0,0,0,.907.3c.322,0,.884-.228.884-.617V18.112a.361.361,0,0,0-.622-.249c-.205.216-.354.182-.833-.071a1.266,1.266,0,0,0-1.692.071h0a.362.362,0,0,0-.1.249v3.914A3.259,3.259,0,0,0,78.3,25.265q0,.15.015.3H76.676a1.085,1.085,0,0,0-1.082,1.086v8.879H71.986V29.3a.361.361,0,0,0-.361-.361l-.361-.015v-.767h3.608v-.722H71.264a.73.73,0,0,0-.722.737v.752h0a.73.73,0,0,0,.722.737V35.68a1.082,1.082,0,0,0-.542.936v.424A1.083,1.083,0,0,0,70,38.059v.722a.361.361,0,0,0,.361.361H92.73a.361.361,0,0,0,.361-.361v-.722a1.083,1.083,0,0,0-.722-1.019Zm-20.925-.424a.361.361,0,0,1,.361-.361H91.287a.361.361,0,0,1,.361.361v.361h-20.2ZM83.53,35.534H79.562V32.375a1.894,1.894,0,0,1,1.892-1.892h.184a1.894,1.894,0,0,1,1.892,1.892Zm-.89-17.1a1.746,1.746,0,0,0,1.07.284v1.249c-.165.112-.334.053-.734-.158a2.014,2.014,0,0,0-.907-.3,1,1,0,0,0-.163.013V18.273c.164-.112.334-.053.734.158Zm-6.326,8.224a.363.363,0,0,1,.361-.364h2.063a.365.365,0,0,0,.351-.443,2.56,2.56,0,0,1-.07-.582,2.525,2.525,0,1,1,5.051,0,2.579,2.579,0,0,1-.07.582.364.364,0,0,0,.351.443h2.063a.363.363,0,0,1,.361.364v8.879H84.252V32.375a2.617,2.617,0,0,0-2.614-2.614h-.184a2.617,2.617,0,0,0-2.614,2.614v3.159H76.314ZM92.369,38.42H70.723v-.361a.361.361,0,0,1,.361-.361H92.008a.361.361,0,0,1,.361.361Z" transform="translate(8098.999 280.505)" fill="none" stroke="#fff" stroke-width="0.35"/>
    </g>
  </g>
</svg>
