<svg id="Group_329" data-name="Group 329" xmlns="http://www.w3.org/2000/svg" xmlns:xlink="http://www.w3.org/1999/xlink" width="36.602" height="23.57" viewBox="0 0 36.602 23.57">
  <defs>
    <linearGradient id="linear-gradient" x1="0.5" x2="0.5" y2="1" gradientUnits="objectBoundingBox">
      <stop offset="0" stop-color="#56ccf2"/>
      <stop offset="1" stop-color="#2f80ed"/>
    </linearGradient>
  </defs>
  <path id="monitoring-system" d="M29.671,0V6.532h-.3c-.259,0-.518.015-.771.039V1.06H1.06V15.954H21.8a7.854,7.854,0,0,0,.414,1.308A7.745,7.745,0,0,0,23.8,19.7H19.516v1.984H22.5V23.57H7.125v-1.9H10.3V19.686H0V0Zm-6.9,10.217h-.468a.417.417,0,0,1-.411-.349l-.655-3.277L20.3,10.023a.414.414,0,0,1-.506.3.408.408,0,0,1-.268-.229L18.6,8.042l-.673,1.65a.414.414,0,0,1-.384.259H16.326a.417.417,0,0,1-.393-.28l-.664-1.629-.923,2.04a.414.414,0,0,1-.786-.089l-.932-3.411-1.34,6.723a.417.417,0,0,1-.813,0L9.109,9.076l-.3.748a.414.414,0,0,1-.384.259H3.5a.417.417,0,1,1,0-.831h4.65L8.769,7.7a.414.414,0,0,1,.777.027l1.236,3.851L12.156,4.7a.42.42,0,0,1,.3-.319.411.411,0,0,1,.506.3l1.1,4.021.846-1.868a.405.405,0,0,1,.226-.217.411.411,0,0,1,.539.229l.932,2.282h.67l.917-2.273a.405.405,0,0,1,.214-.223.414.414,0,0,1,.548.209l.849,1.871L20.9,4.712a.414.414,0,0,1,.816,0l.926,4.677h.718a8.069,8.069,0,0,0-.6.831Zm-8.936,6.869H15.8a.372.372,0,0,1,.375.375h0a.378.378,0,0,1-.375.375H13.848a.378.378,0,0,1-.375-.375h0a.375.375,0,0,1,.375-.375Zm3.39,0h.36a.375.375,0,0,1,.378.375h0a.378.378,0,0,1-.378.375h-.351a.378.378,0,0,1-.375-.375h0a.375.375,0,0,1,.375-.375Zm-5.165,0h.36a.372.372,0,0,1,.384.378h0a.375.375,0,0,1-.375.375h-.36a.378.378,0,0,1-.375-.375h0a.375.375,0,0,1,.375-.375Z" fill-rule="evenodd" fill="url(#linear-gradient)"/>
  <path id="monitoring-system-2" data-name="monitoring-system" d="M85.338,29a5.713,5.713,0,0,1,4.891,8.638l2.21,2.407a.274.274,0,0,1-.018.387L90.8,41.921a.277.277,0,0,1-.387-.018L88.3,39.577a5.731,5.731,0,0,1-5.162.4h0a5.71,5.71,0,0,1-3.08-7.447h0A5.7,5.7,0,0,1,85.338,29Zm3.208,2.472a4.56,4.56,0,0,0-7.417,1.489h0a4.572,4.572,0,0,0-.34,1.731,4.5,4.5,0,0,0,.34,1.754,4.545,4.545,0,0,0,.992,1.489,4.614,4.614,0,0,0,1.489.989h0a4.557,4.557,0,0,0,5.937-2.478h0a4.548,4.548,0,0,0-.995-4.948v-.015Z" transform="translate(-55.909 -20.362)" fill-rule="evenodd" fill="url(#linear-gradient)"/>
</svg>
