<svg xmlns="http://www.w3.org/2000/svg" xmlns:xlink="http://www.w3.org/1999/xlink" width="50.325" height="46.36" viewBox="0 0 50.325 46.36">
  <defs>
    <linearGradient id="linear-gradient" x1="0.5" x2="0.5" y2="1" gradientUnits="objectBoundingBox">
      <stop offset="0" stop-color="#fff"/>
      <stop offset="1" stop-color="#fff" stop-opacity="0"/>
    </linearGradient>
  </defs>
  <g id="Group_510" data-name="Group 510" transform="translate(-17.374 -30.04)">
    <g id="Light" transform="translate(17.374 30.04)">
      <rect id="Rectangle_1606" data-name="Rectangle 1606" width="35" height="2" rx="1" transform="translate(6.663)" fill="#fff"/>
      <path id="Path_1078" data-name="Path 1078" d="M45.638,47,38.044,91.36H88.369L79,47Z" transform="translate(-38.044 -45)" opacity="0.5" fill="url(#linear-gradient)"/>
    </g>
    <path id="translation" d="M5.04,21.227,10.2,19.676l-.911,1.676a5.3,5.3,0,0,0,5.925,1.091,5.679,5.679,0,0,1-7.734,2.249L6.546,26.4l-1.5-5.174Zm-.1-13.636H7.075v-.55a.071.071,0,0,1,.071-.071h.975a.071.071,0,0,1,.071.071v.55h2.148a.071.071,0,0,1,.071.071V8.682a.069.069,0,0,1-.071.069h-.4a4.619,4.619,0,0,1-.2.859,5.372,5.372,0,0,1-.372.859,6.875,6.875,0,0,1-.447.7c-.155.215-.324.43-.5.645a8.665,8.665,0,0,0,.995.99h0a11.9,11.9,0,0,0,1.25.92.069.069,0,0,1,.021.1l-.5.791a.075.075,0,0,1-.1.021,13,13,0,0,1-1.341-.984A9.578,9.578,0,0,1,7.67,12.6c-.277.264-.569.522-.874.769-.346.277-.707.546-1.074.8a.071.071,0,0,1-.1-.017l-.531-.771a.067.067,0,0,1,.017-.1c.363-.251.718-.516,1.055-.791.3-.243.584-.494.849-.754a8.532,8.532,0,0,1-.677-1.205A9.608,9.608,0,0,1,5.814,9.11a.073.073,0,0,1,.049-.086l.9-.254a.069.069,0,0,1,.086.049,8.422,8.422,0,0,0,.413,1.156,8.021,8.021,0,0,0,.5.943c.118-.148.23-.294.333-.443a5.825,5.825,0,0,0,.324-.533A4.228,4.228,0,0,0,8.7,9.318a4.054,4.054,0,0,0,.148-.578H4.941a.069.069,0,0,1-.071-.069V7.661A.071.071,0,0,1,4.941,7.591Zm10.635.915h6.957a2.66,2.66,0,0,1,2.649,2.651v5.6a2.66,2.66,0,0,1-2.649,2.651h-.215l-.142,2.125a.563.563,0,0,1-.9.43l-3.39-2.552H13.574a2.66,2.66,0,0,1-2.647-2.539H8.308L4.372,19.981a.982.982,0,0,1-1.579-.859l.172-2.267A3.206,3.206,0,0,1,.95,15.92l-.06-.064A3.21,3.21,0,0,1,0,13.656V7.672A3.223,3.223,0,0,1,3.223,4.449h9.129a3.2,3.2,0,0,1,2.271.943l.06.062a3.223,3.223,0,0,1,.885,2.209V8.5Zm6.808-3.163-5.345.722,1.162-1.5a5.3,5.3,0,0,0-5.678-2.009,5.682,5.682,0,0,1,8-1.012L21.7,0l.668,5.343Zm-2.709,9.715H17.957l-.318,1.074H16.09c.516-1.369,1.113-3.008,1.631-4.383.187-.494.4-1.315,1.074-1.315s.937.752,1.132,1.272l1.656,4.449H20l-.327-1.1Zm-.26-1.053-.6-1.886-.6,1.886ZM3.223,5.44h9.129a2.241,2.241,0,0,1,2.232,2.232v5.983A2.239,2.239,0,0,1,12.352,15.9H7.969l-4.2,3.3.249-3.3H3.223A2.237,2.237,0,0,1,.984,13.656V7.672A2.239,2.239,0,0,1,3.223,5.44Z" transform="translate(30 44)" fill="#fff" fill-rule="evenodd" opacity="0.5"/>
  </g>
</svg>
