<svg xmlns="http://www.w3.org/2000/svg" xmlns:xlink="http://www.w3.org/1999/xlink" width="50.325" height="46.36" viewBox="0 0 50.325 46.36">
  <defs>
    <linearGradient id="linear-gradient" x1="0.5" x2="0.5" y2="1" gradientUnits="objectBoundingBox">
      <stop offset="0" stop-color="#fff"/>
      <stop offset="1" stop-color="#fff" stop-opacity="0"/>
    </linearGradient>
  </defs>
  <g id="Group_535" data-name="Group 535" transform="translate(-8052.873 -62.04)">
    <g id="Light" transform="translate(8052.873 62.04)">
      <rect id="Rectangle_1606" data-name="Rectangle 1606" width="35" height="2" rx="1" transform="translate(6.663)" fill="#fff"/>
      <path id="Path_1078" data-name="Path 1078" d="M45.638,47,38.044,91.36H88.369L79,47Z" transform="translate(-38.044 -45)" opacity="0.5" fill="url(#linear-gradient)"/>
    </g>
    <path id="gas-cylinder-black" d="M5.31,4.739V1.568H3.192V4.781A13.935,13.935,0,0,1,5.31,4.732Zm2.627,0a13.615,13.615,0,0,1,2.118.047V1.568H7.937Zm2.85.21a3.721,3.721,0,0,1,2.481,3.5v.544H0V8.447a3.723,3.723,0,0,1,2.457-3.49V1.568H2.4a.788.788,0,0,1-.78-.784h0A.786.786,0,0,1,2.406,0h8.437a.788.788,0,0,1,.784.784h0a.788.788,0,0,1-.784.784h-.055V4.949Zm2.481,4.9V16.16H0V9.849Zm0,7.169v2.012a2.54,2.54,0,0,1-1.293,2.209v1.3a.686.686,0,0,1-.684.684H1.975a.686.686,0,0,1-.684-.684v-1.3A2.542,2.542,0,0,1,0,19.031V17.018Z" transform="translate(8071 81)" fill="none" stroke="#fff" stroke-width="0.5" fill-rule="evenodd" opacity="0.5"/>
  </g>
</svg>
