<svg xmlns="http://www.w3.org/2000/svg" width="21.879" height="8.167" viewBox="0 0 21.879 8.167">
  <g id="upi-payment" transform="translate(-0.001)">
    <path id="Path_1086" data-name="Path 1086" d="M107.015.06,108.5,3.007,105.38,5.955l.37-1.337,1.7-1.611-.81-1.611Z" transform="translate(-86.616 -0.049)" fill="#585757" fill-rule="evenodd"/>
    <path id="Path_1087" data-name="Path 1087" d="M101.156.06l1.481,2.947L99.52,5.955Z" transform="translate(-81.799 -0.049)" fill="#585757" fill-rule="evenodd"/>
    <path id="Path_1088" data-name="Path 1088" d="M.229,7.024H.4l-.16.668a.286.286,0,0,0,.014.224.2.2,0,0,0,.183.075.316.316,0,0,0,.217-.075.424.424,0,0,0,.121-.224l.16-.668h.174L.946,7.71a.6.6,0,0,1-.191.335.544.544,0,0,1-.358.11.361.361,0,0,1-.3-.11A.4.4,0,0,1,.065,7.71l.164-.685ZM16.745,5.881H15.573L17.2,0h1.172L16.745,5.881ZM7.006,5.512a.541.541,0,0,1-.518.4H.446A.426.426,0,0,1,.078,5.74a.462.462,0,0,1-.05-.417L1.5.016H2.672L1.358,4.758H6.046L7.362.016H8.533l-1.528,5.5ZM16.138.185a.431.431,0,0,0-.376-.167H9.322L9.005,1.172h5.858L14.521,2.4H9.833v0H8.661L7.689,5.91H8.861l.652-2.356h5.267a.742.742,0,0,0,.465-.167.776.776,0,0,0,.285-.417L16.181.614a.468.468,0,0,0-.043-.429Zm4.838,7.939.264-1.1h.6l-.036.151h-.424l-.066.276h.424l-.037.157h-.424l-.085.356h.424l-.037.16Zm-.018-.833a.387.387,0,0,0-.134-.1.416.416,0,0,0-.166-.032.474.474,0,0,0-.313.116.537.537,0,0,0-.182.3.352.352,0,0,0,.037.294.277.277,0,0,0,.244.116.537.537,0,0,0,.189-.036.815.815,0,0,0,.191-.105l-.048.2a.664.664,0,0,1-.171.077.7.7,0,0,1-.185.025.55.55,0,0,1-.217-.041.383.383,0,0,1-.155-.121.4.4,0,0,1-.077-.185.589.589,0,0,1,.012-.228.777.777,0,0,1,.1-.228.76.76,0,0,1,.167-.187.773.773,0,0,1,.212-.123A.65.65,0,0,1,20.692,7a.488.488,0,0,1,.173.028.507.507,0,0,1,.146.085l-.053.178Zm-1.319.833-.053-.283h-.426l-.192.283h-.183l.794-1.145.246,1.145Zm-.379-.433h.3l-.05-.251c0-.016-.005-.034-.007-.055s0-.045,0-.069c-.012.023-.023.046-.036.068s-.023.039-.034.057l-.169.251ZM18.2,8.124l.264-1.1h.6l-.036.151H18.6l-.066.274h.424l-.037.157H18.5l-.125.518Zm-.561-.491-.118.493h-.164l.264-1.1h.244a.731.731,0,0,1,.162.014.173.173,0,0,1,.089.048.184.184,0,0,1,.052.1.37.37,0,0,1-.005.139.4.4,0,0,1-.112.207.349.349,0,0,1-.2.089l.249.5h-.2l-.239-.493h-.02Zm.045-.141h.032a.38.38,0,0,0,.192-.034.172.172,0,0,0,.073-.118c.014-.061.009-.1-.018-.128a.267.267,0,0,0-.171-.037h-.032l-.077.317Zm-1.124.632.264-1.1h.6l-.036.151h-.424l-.066.276h.424l-.037.157h-.424l-.085.356h.424l-.039.16Zm-.191-.949-.228.949h-.174l.228-.949h-.285l.036-.151h.742l-.036.151h-.283Zm-1.779.949.274-1.145.52.673a.721.721,0,0,1,.041.061c.014.021.028.046.043.073l.183-.764h.162l-.274,1.143L15,7.48a.481.481,0,0,1-.039-.059c-.012-.021-.023-.043-.034-.064l-.183.766h-.16Zm-.426,0,.264-1.1H14.6l-.264,1.1ZM12.872,7.9l.155-.066a.143.143,0,0,0,.046.112.188.188,0,0,0,.126.039.2.2,0,0,0,.134-.045.215.215,0,0,0,.075-.119c.016-.064-.023-.123-.116-.173l-.03-.016a.528.528,0,0,1-.2-.16.225.225,0,0,1-.016-.176.373.373,0,0,1,.141-.217A.407.407,0,0,1,13.442,7a.338.338,0,0,1,.187.046.181.181,0,0,1,.078.135l-.153.073a.168.168,0,0,0-.053-.077.135.135,0,0,0-.082-.023.2.2,0,0,0-.121.037.173.173,0,0,0-.066.1c-.016.066.03.128.137.185l.02.011a.458.458,0,0,1,.183.148.232.232,0,0,1,.016.18.435.435,0,0,1-.155.249.449.449,0,0,1-.281.093.3.3,0,0,1-.208-.064.252.252,0,0,1-.071-.191Zm-.182-.728-.226.949H12.29l.228-.949h-.285l.037-.151h.742l-.036.151h-.287Zm-1.779.949.274-1.145.52.673a.721.721,0,0,1,.041.061c.014.021.028.046.043.073l.183-.764h.162l-.274,1.143-.532-.685a.481.481,0,0,1-.039-.059c-.012-.021-.023-.043-.034-.064l-.183.766h-.16Zm-.8,0,.264-1.1h.6l-.036.151h-.424l-.066.276h.424l-.037.157h-.424l-.085.356h.424l-.039.16Zm-.29-.543a.665.665,0,0,1,.007-.071c0-.032.007-.059.009-.08A.732.732,0,0,1,9.8,7.5c-.014.025-.03.05-.048.077l-.422.586-.137-.6A.545.545,0,0,1,9.181,7.5a.451.451,0,0,1-.005-.068c-.005.023-.014.046-.023.073a.712.712,0,0,1-.034.08l-.246.541h-.16l.529-1.148.15.694c0,.011.005.03.009.055s.009.057.014.094c.018-.032.043-.071.077-.121a.267.267,0,0,0,.02-.03l.475-.694L9.97,8.123H9.812l.011-.541Zm-1.663.543.121-.5-.219-.6h.183L8.38,7.4a.34.34,0,0,1,.011.037c0,.016.009.032.012.05.011-.018.023-.034.034-.05a.448.448,0,0,1,.034-.043l.319-.369h.174l-.513.6-.121.5H8.159Zm-.434,0-.053-.283H7.246l-.192.283H6.87L7.664,6.98,7.91,8.124Zm-.379-.433h.3l-.05-.251c0-.016-.005-.034-.007-.055s0-.045,0-.069c-.011.023-.023.046-.036.068s-.023.039-.034.057l-.169.251Zm-.764-.061-.118.495H6.3l.264-1.1h.264A.762.762,0,0,1,7,7.038a.2.2,0,0,1,.085.043.181.181,0,0,1,.053.1.325.325,0,0,1-.005.142.473.473,0,0,1-.062.144.325.325,0,0,1-.21.146.872.872,0,0,1-.176.012h-.1Zm.045-.148h.045a.444.444,0,0,0,.2-.032.171.171,0,0,0,.077-.114.118.118,0,0,0-.021-.125.3.3,0,0,0-.182-.036H6.7l-.075.306Zm-1.891.641L5,7.024h.235a1.407,1.407,0,0,1,.317.023.317.317,0,0,1,.144.08.338.338,0,0,1,.1.187.637.637,0,0,1-.014.262.8.8,0,0,1-.11.26.685.685,0,0,1-.185.187.563.563,0,0,1-.18.08,1.267,1.267,0,0,1-.285.023H4.735Zm.214-.162H5.1a.815.815,0,0,0,.185-.016A.382.382,0,0,0,5.4,7.891a.441.441,0,0,0,.123-.134A.577.577,0,0,0,5.6,7.573a.528.528,0,0,0,.014-.185.242.242,0,0,0-.059-.134.191.191,0,0,0-.1-.055.83.83,0,0,0-.194-.016H5.136l-.187.78Zm-1.013.162.264-1.1h.6l-.036.151H4.338l-.066.276H4.7l-.037.157H4.235l-.085.356h.424l-.039.16Zm-.426,0,.264-1.1h.174l-.264,1.1Zm-.791,0,.264-1.1h.6l-.036.151H3.122l-.066.274H3.48l-.037.157H3.019l-.125.518Zm-.424,0,.264-1.1h.174l-.264,1.1Zm-1.209,0L1.361,6.98l.52.673a.721.721,0,0,1,.041.061c.014.021.028.046.043.073l.183-.764H2.31L2.036,8.165,1.506,7.48a.481.481,0,0,1-.039-.059c-.012-.021-.023-.043-.034-.064l-.185.767Z" transform="translate(0)" fill="#585757"/>
  </g>
</svg>
