<svg id="amazon-a-logo" xmlns="http://www.w3.org/2000/svg" width="14.604" height="13.277" viewBox="0 0 14.604 13.277">
  <path id="Path_663" data-name="Path 663" d="M33.848,6.519A2.68,2.68,0,0,1,34.3,4.952a2.786,2.786,0,0,1,1.235-.982A6.684,6.684,0,0,1,37.3,3.532q.358-.04,1.168-.106V3.2a2.364,2.364,0,0,0-.186-1.142,1,1,0,0,0-.876-.4H37.3a1.453,1.453,0,0,0-.757.279,1.088,1.088,0,0,0-.412.664.337.337,0,0,1-.266.305l-1.527-.186q-.226-.053-.226-.239a.391.391,0,0,1,.013-.093A2.545,2.545,0,0,1,35.235.637,4.164,4.164,0,0,1,37.3,0h.332A3.356,3.356,0,0,1,40,.783a2.542,2.542,0,0,1,.246.285,2.573,2.573,0,0,1,.179.272,1.386,1.386,0,0,1,.12.345c.036.151.062.255.08.312a1.9,1.9,0,0,1,.04.372q.013.285.013.338V5.921a1.9,1.9,0,0,0,.1.631,1.652,1.652,0,0,0,.192.412q.093.126.305.4a.4.4,0,0,1,.08.213.229.229,0,0,1-.106.186L40.048,8.8a.37.37,0,0,1-.385.027q-.186-.16-.325-.305t-.2-.212a2.952,2.952,0,0,1-.192-.259c-.088-.128-.151-.215-.186-.259A3.26,3.26,0,0,1,37.3,8.8a4.013,4.013,0,0,1-1.115.133,2.327,2.327,0,0,1-1.68-.631,2.358,2.358,0,0,1-.657-1.786Zm2.284-.266a1.259,1.259,0,0,0,.259.83.859.859,0,0,0,.7.312.683.683,0,0,0,.113-.013.656.656,0,0,1,.1-.013,1.349,1.349,0,0,0,.863-.717,2.076,2.076,0,0,0,.219-.551,2.514,2.514,0,0,0,.08-.485q.007-.186.007-.611V4.674A4.834,4.834,0,0,0,37.3,4.78a1.423,1.423,0,0,0-1.169,1.474Z" transform="translate(-29.825)"/>
  <path id="Path_664" data-name="Path 664" d="M11.883,84.418a.418.418,0,0,1,.08-.106,2.082,2.082,0,0,1,.637-.305,4.337,4.337,0,0,1,.982-.146.791.791,0,0,1,.252.013q.6.053.717.2a.436.436,0,0,1,.053.239V84.4a3.028,3.028,0,0,1-.252,1.1,2.551,2.551,0,0,1-.7,1.016.2.2,0,0,1-.119.053.118.118,0,0,1-.053-.013q-.08-.04-.04-.146a5.063,5.063,0,0,0,.491-1.607.341.341,0,0,0-.053-.212q-.133-.159-.744-.159-.226,0-.531.027-.332.04-.611.08a.155.155,0,0,1-.106-.027.043.043,0,0,1-.013-.053.1.1,0,0,1,.013-.04ZM.027,84.193q.066-.106.213-.013A14.145,14.145,0,0,0,7.462,86.1a14.288,14.288,0,0,0,5.138-.969l.192-.08q.126-.053.179-.08a.236.236,0,0,1,.312.08q.113.16-.073.292-.239.173-.611.4a9.95,9.95,0,0,1-2.549,1.049A10.7,10.7,0,0,1,.08,84.405.181.181,0,0,1,0,84.272a.142.142,0,0,1,.027-.08Z" transform="translate(0 -73.89)" fill="#f90"/>
</svg>
