<svg xmlns="http://www.w3.org/2000/svg" xmlns:xlink="http://www.w3.org/1999/xlink" width="14.708" height="14.586" viewBox="0 0 14.708 14.586">
  <defs>
    <linearGradient id="linear-gradient" x1="0.5" y1="0.636" x2="0.5" y2="1.636" gradientUnits="objectBoundingBox">
      <stop offset="0" stop-color="#f7e830"/>
      <stop offset="1" stop-color="#fdcb06"/>
    </linearGradient>
    <radialGradient id="radial-gradient" cx="0.496" cy="3.536" r="4.378" gradientTransform="translate(0.419) scale(0.154 1)" gradientUnits="objectBoundingBox">
      <stop offset="0.596" stop-color="#f29405"/>
      <stop offset="0.736" stop-color="#f7d01e"/>
      <stop offset="1" stop-color="#fdcb06"/>
    </radialGradient>
    <linearGradient id="linear-gradient-2" x1="0.491" y1="13.159" x2="0.499" y2="14.14" gradientUnits="objectBoundingBox">
      <stop offset="0" stop-color="#fada1c"/>
      <stop offset="1" stop-color="#fdcb06"/>
    </linearGradient>
    <linearGradient id="linear-gradient-3" x1="-47.941" y1="13.157" x2="-47.933" y2="14.137" xlink:href="#linear-gradient-2"/>
    <clipPath id="clip-path">
      <path id="Path_679" data-name="Path 679" d="M199.7,141a.218.218,0,0,1-.018-.1l-.016,0a.233.233,0,0,0-.2-.18c-.074-.006-.166,0-.209.066-.082.111-.043.252-.047.377,0,.008,0,.023,0,.031a1.432,1.432,0,0,1-.025.248.176.176,0,0,0-.018.08,1.889,1.889,0,0,1-.2.557.207.207,0,0,0-.039.08,2.771,2.771,0,0,1-.211.3.265.265,0,0,0-.033.035,2.006,2.006,0,0,1-.17.178c-.014.008-.025.018-.037.027a1.335,1.335,0,0,1-.232.182l-.033.023a3.294,3.294,0,0,1-1.783.5,3.33,3.33,0,0,1-1.533-.324l-.037-.016a2.046,2.046,0,0,1-.236-.133c-.016-.008-.033-.018-.051-.027a1.566,1.566,0,0,1-.215-.152c-.023-.02-.047-.037-.072-.055a1.736,1.736,0,0,1-.213-.195c-.016-.018-.033-.035-.049-.051a2.042,2.042,0,0,1-.49-.822,2.532,2.532,0,0,1-.086-.766.275.275,0,0,0-.352-.107c-.051.037-.057.1-.1.152a2.407,2.407,0,0,0,.686,1.838.033.033,0,0,0,.023.033c.082.076.162.154.244.227a.328.328,0,0,0,.049.041c.082.068.17.129.256.193a.436.436,0,0,0,.051.033,2.306,2.306,0,0,0,.34.189.271.271,0,0,0,.031.02,3.7,3.7,0,0,0,1.24.354.661.661,0,0,1,.141.014c.2.012.41.006.615,0a3.686,3.686,0,0,0,1.815-.582l.006.008c.016-.014.031-.027.047-.039.084-.061.166-.127.248-.195a.6.6,0,0,0,.057-.049,2.7,2.7,0,0,0,.27-.3l.012.006.023-.041c.07-.094.133-.193.195-.291,0-.006.014-.016.018-.023l-.008-.008.027-.033a2.4,2.4,0,0,0,.248-.723.035.035,0,0,0,.023-.033,1.93,1.93,0,0,0,.023-.242A1.381,1.381,0,0,0,199.7,141Z" transform="translate(-192.994 -140.721)"/>
    </clipPath>
  </defs>
  <g id="flipkart" transform="translate(0.046 0.047)">
    <path id="Path_665" data-name="Path 665" d="M14.773,119.651c-.006-.02-.012-.041-.02-.061q-7.281,0-14.558,0a.085.085,0,0,0-.023.047q0,5.646,0,11.29a.913.913,0,0,0,.289.52l.027.006a.712.712,0,0,0,.287.156c.076,0,.15.029.225.02H7.022a.487.487,0,0,0,.172-.014c0-.008,0-.023.006-.031s0-.033.006-.045c.129-.721.254-1.445.391-2.166l.012-.092c-.557,0-1.117,0-1.674,0-.135,0-.275,0-.41-.016-.232-.01-.465,0-.7-.025-.287,0-.572-.027-.859-.027-.225-.023-.453-.014-.68-.025-.148-.018-.3-.01-.449-.016-.244-.027-.492-.008-.736-.035-.258,0-.516-.02-.775-.027a.029.029,0,0,0,0-.012c.086,0,.17,0,.256-.006.191-.025.383-.008.574-.035.2,0,.4-.027.594-.027.176-.025.354-.01.531-.035.207,0,.41-.027.617-.029.17-.023.342-.01.512-.033.2,0,.4-.029.594-.027.195-.023.393-.016.588-.037-.018-.076-.033-.152-.049-.227-.014-.047-.072-.037-.109-.043q-.667-.1-1.33-.189c.029-.023.068-.012.1-.016.344-.027.686-.057,1.031-.082.078,0,.154-.018.232-.02a2.677,2.677,0,0,0-.1-.322c-.736-.113-1.471-.213-2.2-.334.191-.031.383-.045.574-.066l.016-.006c.609-.064,1.219-.135,1.828-.195.772,0,1.543,0,2.315,0,.025,0,.068.008.072-.027.064-.332.125-.664.189-1a4.971,4.971,0,0,1,.443-1.336,3.94,3.94,0,0,1,1.524-1.631,4.392,4.392,0,0,1,2.014-.561,3.163,3.163,0,0,1,.682.014.953.953,0,0,1,.416.176.7.7,0,0,1,.2.307,4.9,4.9,0,0,1,.193.84.649.649,0,0,1-.039.348.441.441,0,0,1-.281.182c-.4.1-.809.006-1.2.1a1.466,1.466,0,0,0-.836.51,2.377,2.377,0,0,0-.445,1.057c-.055.336-.125.672-.18,1.01.389,0,.781,0,1.172,0a.412.412,0,0,1,.379.234,1.127,1.127,0,0,1,.037.6,2.185,2.185,0,0,1-.186.65.733.733,0,0,1-.414.4.826.826,0,0,1-.309.031c-.344,0-.688,0-1.033,0-.055.252-.092.51-.141.766-.09.5-.178,1-.268,1.5,0,.016,0,.051,0,.07.162.008.324,0,.486,0,1.2,0,2.4,0,3.606,0a.719.719,0,0,0,.373-.09c.068-.025.109-.084.168-.117s.074-.1.123-.143a.683.683,0,0,0,.113-.3l.031,0C14.771,127.192,14.777,123.422,14.773,119.651Z" transform="translate(-0.168 -117.141)" stroke="#fcd109" stroke-width="0.094" fill="url(#linear-gradient)"/>
    <path id="Path_666" data-name="Path 666" d="M1.963.08A2.222,2.222,0,0,1,2.5.05q5.019,0,10.038,0a1.689,1.689,0,0,1,.557.162c.148.059.3.107.449.17a.245.245,0,0,1,.076.061c0,.27,0,.543,0,.815a.689.689,0,0,0,.014.215c.043.006.066.039.094.066a2.776,2.776,0,0,1,.373.244c.184.131.381.246.561.381a.341.341,0,0,1-.014.158.85.85,0,0,0-.012.176Q7.352,2.5.075,2.5a.713.713,0,0,0-.02-.2c0-.053-.023-.123.029-.16.2-.143.422-.273.623-.424.125-.08.246-.162.367-.244a.261.261,0,0,0,.016-.137c0-.3,0-.594,0-.891.07-.09.191-.1.287-.145C1.573.226,1.77.154,1.963.08m.012.035c-.262.1-.527.2-.789.3-.035.006-.053.037-.072.064,0,.016,0,.045,0,.061,0,.246,0,.492,0,.738a.513.513,0,0,0,.016.178.51.51,0,0,1-.088.074c-.3.193-.584.4-.881.592-.051.031-.109.072-.092.139-.01.037.008.068.047.057.643,0,1.285,0,1.928-.006.957,0,1.912,0,2.869,0L4.929,2.3a.558.558,0,0,0,.131.006q2.6,0,5.2,0c.545,0,1.092,0,1.639,0,.9,0,1.805.008,2.707,0,.027-.006.035-.025.025-.057s.01-.078-.025-.1c-.143-.068-.266-.172-.4-.254-.049-.041-.113-.064-.15-.119-.141-.08-.273-.178-.412-.266a.42.42,0,0,1-.07-.066.5.5,0,0,0,.016-.135c0-.26,0-.52,0-.781a.113.113,0,0,0-.033-.115C13.31.334,13.066.24,12.822.15A.838.838,0,0,0,12.58.08H2.108a.8.8,0,0,0-.133.035Z" transform="translate(-0.048 -0.049)" fill="#f8f3b5" stroke="#f8f3b5" stroke-width="0.094"/>
    <path id="Path_667" data-name="Path 667" d="M52.172,23.89c.18.076.373.119.555.193.1.039.129.145.172.232a.852.852,0,0,1-.145.111c-.189.127-.381.25-.568.381a.513.513,0,0,1-.016-.178C52.172,24.382,52.17,24.136,52.172,23.89Zm11.915.193c.182-.072.373-.121.555-.193,0,.26,0,.52,0,.781a.5.5,0,0,1-.016.135c-.16-.111-.322-.215-.482-.324a1.888,1.888,0,0,1-.234-.17c.043-.086.076-.191.174-.229Z" transform="translate(-51.102 -23.402)" fill="#f7b402" stroke="#f7b402" stroke-width="0.094"/>
    <path id="Path_668" data-name="Path 668" d="M190.382,36.963a.386.386,0,0,1,.459.383.39.39,0,0,1-.465.367.446.446,0,0,1-.232-.158.385.385,0,0,1-.031-.373.366.366,0,0,1,.268-.219Zm5.846.129a.394.394,0,0,1,.383-.127.383.383,0,0,1,.1.707.4.4,0,0,1-.471-.08A.39.39,0,0,1,196.228,37.092Z" transform="translate(-186.186 -36.198)" fill="#bda727" stroke="#bda727" stroke-width="0.094"/>
    <path id="Path_669" data-name="Path 669" d="M2.663,44.6a.851.851,0,0,0,.145-.111l.014.014c.014.107,0,.215.008.322-.006.32.006.641-.008.961-.6,0-1.192,0-1.789,0-.016-.068.041-.109.092-.139.3-.191.584-.4.881-.592a.509.509,0,0,0,.088-.074C2.281,44.853,2.474,44.73,2.663,44.6ZM13.8,44.562a.127.127,0,0,1,.02-.072,1.889,1.889,0,0,0,.234.17c.16.109.322.213.482.324a.42.42,0,0,0,.07.066c.139.088.27.186.412.266.037.055.1.078.15.119.137.082.26.186.4.254.035.02.023.066.025.1-.6,0-1.19,0-1.787,0a2.436,2.436,0,0,1-.006-.244c0-.328,0-.656,0-.983Z" transform="translate(-1.011 -43.579)" fill="#f7e62d" stroke="#f7e62d" stroke-width="0.094"/>
    <path id="Path_670" data-name="Path 670" d="M15.6,3.766c-.6,0-1.19,0-1.787,0a2.437,2.437,0,0,1-.006-.244c0-.328,0-.656,0-.983a.127.127,0,0,1,.02-.072c.043-.086.076-.191.174-.229.182-.072.373-.121.555-.193a.113.113,0,0,0-.033-.115c-.246-.088-.49-.182-.734-.273a.838.838,0,0,0-.242-.07H3.073a.8.8,0,0,0-.133.035c-.262.1-.527.2-.789.3-.035.006-.053.037-.072.064,0,.016,0,.045,0,.061.18.076.373.119.555.193.1.039.129.145.172.232l.014.014c.014.107,0,.215.008.322-.006.32.006.641-.008.961-.6,0-1.192,0-1.789,0-.01.037.008.068.047.057.643,0,1.285,0,1.928-.006.957,0,1.912,0,2.869,0l.014-.006a.558.558,0,0,0,.131.006q2.6,0,5.2,0c.545,0,1.092,0,1.639,0,.9,0,1.805.008,2.707,0,.027-.006.035-.025.025-.057ZM4.942,2.543a.366.366,0,0,1,.268-.219.386.386,0,0,1,.459.383.39.39,0,0,1-.465.367.446.446,0,0,1-.232-.158.385.385,0,0,1-.031-.373Zm6.114-.09a.394.394,0,0,1,.383-.127.383.383,0,0,1,.1.707.4.4,0,0,1-.471-.08A.39.39,0,0,1,11.056,2.453Z" transform="translate(-1.014 -1.558)" stroke="#fcd109" stroke-width="0.094" fill="url(#radial-gradient)"/>
    <path id="Path_671" data-name="Path 671" d="M509.968,141.022c.029.006-.149-.171-.114-.179a.382.382,0,0,1,.307-.014c.15.079.113.263.1.331a.37.37,0,0,1-.113.174.2.2,0,0,1-.1.045c.018-.1-.041-.117-.045-.219Z" transform="translate(-499.403 -137.914)" stroke="#fcd109" stroke-width="0.094" fill="url(#linear-gradient-2)"/>
    <path id="Path_672" data-name="Path 672" d="M182.666,139.836c0,.1-.064.119-.045.219a.2.2,0,0,1-.1-.045.37.37,0,0,1-.113-.174c-.017-.068-.054-.252.1-.331a.382.382,0,0,1,.307.014c.035.008-.143.185-.115.179l-.027.138Z" transform="translate(-178.652 -136.617)" stroke="#fcd109" stroke-width="0.094" fill="url(#linear-gradient-3)"/>
    <path id="Path_673" data-name="Path 673" d="M224.879,214.507a.113.113,0,0,1,.092-.027,4.773,4.773,0,0,1-.964,1.48,1.455,1.455,0,0,1-.146.114l-.146.1c-.047.033-.094.066-.14.1a1.921,1.921,0,0,1-.348.191,3.273,3.273,0,0,1-.746.242,2.185,2.185,0,0,1-.305.043,1.786,1.786,0,0,1-.391.018c-.072.012-.135-.029-.2-.02q-.091-.013-.181-.031t-.181-.043a3.138,3.138,0,0,1-2.13-1.98,1.087,1.087,0,0,1-.018-.2q.043.086.089.171a3,3,0,0,0,2.036,1.687c.073.033.151.022.221.05a.572.572,0,0,1,.186.018c.211,0,.422,0,.633,0a.309.309,0,0,0,.084-.018,2.7,2.7,0,0,0,1.017-.253c.064-.029.127-.06.19-.093s.108-.06.159-.093.1-.068.148-.1a3.4,3.4,0,0,0,.93-1.137C224.806,214.649,224.845,214.574,224.879,214.507Z" transform="translate(-214.582 -210.086)" fill="#bda727" stroke="#bda727" stroke-width="0.094"/>
    <path id="Path_674" data-name="Path 674" d="M180.957,277.275a4.393,4.393,0,0,1,2.014-.561,3.167,3.167,0,0,1,.682.014.953.953,0,0,1,.416.176.889.889,0,0,1-.176-.031,3.054,3.054,0,0,0-.512-.025,5.38,5.38,0,0,0-1.469.174,3.449,3.449,0,0,0-.727.3,3.63,3.63,0,0,0-1.035.848,4.441,4.441,0,0,0-.959,2.094c-.07.408-.15.814-.213,1.223-.1.01-.207,0-.309,0q-.676,0-1.352-.008c-.1,0-.191-.018-.287-.012-.82,0-1.639,0-2.459,0l.016-.006c.609-.064,1.219-.135,1.828-.195.772,0,1.543,0,2.315,0,.025,0,.068.008.072-.027.064-.332.125-.664.189-1a4.97,4.97,0,0,1,.443-1.336A3.94,3.94,0,0,1,180.957,277.275Z" transform="translate(-170.994 -271.033)" fill="#0d69b3" stroke="#0d69b3" stroke-width="0.094"/>
    <path id="Path_675" data-name="Path 675" d="M66.623,284.064a5.38,5.38,0,0,1,1.469-.174,3.054,3.054,0,0,1,.512.025.885.885,0,0,0,.176.031.7.7,0,0,1,.2.307,4.893,4.893,0,0,1,.193.84.649.649,0,0,1-.039.348.441.441,0,0,1-.281.182c-.4.1-.809.006-1.2.1a1.466,1.466,0,0,0-.836.51,2.377,2.377,0,0,0-.445,1.057c-.055.336-.125.672-.18,1.01a1.819,1.819,0,0,0-.053.238c.387.006.775,0,1.162,0,.148,0,.3,0,.443-.006a1.126,1.126,0,0,1,.037.6,2.186,2.186,0,0,1-.186.65.733.733,0,0,1-.414.4.827.827,0,0,1-.309.031c-.344,0-.688,0-1.033,0-.055.252-.092.51-.141.766-.09.5-.178,1-.268,1.5,0,.016,0,.051,0,.07v0c-.9,0-1.789,0-2.684,0,0-.008,0-.023.006-.031s0-.033.006-.045c0,.016,0,.047.006.061.055.006.156.035.17-.045.139-.754.268-1.512.412-2.266a.431.431,0,0,0-.17,0c-.008.029-.016.057-.027.086l.012-.092c-.557,0-1.117,0-1.674,0-.135,0-.275,0-.41-.016-.232-.01-.465,0-.7-.025-.287,0-.572-.027-.859-.027-.225-.023-.453-.014-.68-.025-.148-.018-.3-.01-.449-.016-.244-.027-.492-.008-.736-.035-.258,0-.516-.02-.775-.027a.029.029,0,0,0,0-.012c.086,0,.17,0,.256-.006.191-.025.383-.008.574-.035.2,0,.4-.027.594-.027.176-.025.354-.01.531-.035.207,0,.41-.027.617-.029.17-.023.342-.01.512-.033.2,0,.4-.029.594-.027.195-.023.393-.016.588-.037-.018-.076-.033-.152-.049-.227-.014-.047-.072-.037-.109-.043q-.667-.1-1.33-.188c.029-.023.068-.012.1-.016.344-.027.686-.057,1.031-.082.078,0,.154-.018.232-.02a2.678,2.678,0,0,0-.1-.322c-.736-.113-1.471-.213-2.2-.334.191-.031.383-.045.574-.066.82,0,1.639.006,2.459,0,.1-.006.191.016.287.012q.676.006,1.352.008c.1,0,.207.006.309,0,.064-.41.143-.815.213-1.223a4.441,4.441,0,0,1,.959-2.094,3.63,3.63,0,0,1,1.035-.848A3.449,3.449,0,0,1,66.623,284.064Z" transform="translate(-55.706 -278.074)" fill="#107bd4" stroke="#107bd4" stroke-width="0.094"/>
    <path id="Path_676" data-name="Path 676" d="M347.01,499.29c.389,0,.781,0,1.172,0a.412.412,0,0,1,.379.234c-.147.01-.3,0-.443.006-.387,0-.775,0-1.162,0a1.817,1.817,0,0,1,.053-.238Zm-3.022,1.92a.432.432,0,0,1,.17,0c-.143.754-.272,1.512-.412,2.266-.014.08-.115.051-.17.045,0-.014,0-.045-.006-.061.129-.721.254-1.445.391-2.166.01-.029.018-.057.027-.086Z" transform="translate(-336.531 -489.061)" fill="#0d69b3" stroke="#0d69b3" stroke-width="0.094"/>
    <path id="Path_677" data-name="Path 677" d="M199.7,141a.218.218,0,0,1-.018-.1l-.016,0a.233.233,0,0,0-.2-.18c-.074-.006-.166,0-.209.066-.082.111-.043.252-.047.377,0,.008,0,.023,0,.031a1.432,1.432,0,0,1-.025.248.176.176,0,0,0-.018.08,1.889,1.889,0,0,1-.2.557.207.207,0,0,0-.039.08,2.771,2.771,0,0,1-.211.3.265.265,0,0,0-.033.035,2.006,2.006,0,0,1-.17.178c-.014.008-.025.018-.037.027a1.335,1.335,0,0,1-.232.182l-.033.023a3.294,3.294,0,0,1-1.783.5,3.33,3.33,0,0,1-1.533-.324l-.037-.016a2.046,2.046,0,0,1-.236-.133c-.016-.008-.033-.018-.051-.027a1.566,1.566,0,0,1-.215-.152c-.023-.02-.047-.037-.072-.055a1.736,1.736,0,0,1-.213-.195c-.016-.018-.033-.035-.049-.051a2.042,2.042,0,0,1-.49-.822,2.532,2.532,0,0,1-.086-.766.275.275,0,0,0-.352-.107c-.051.037-.057.1-.1.152a2.407,2.407,0,0,0,.686,1.838.033.033,0,0,0,.023.033c.082.076.162.154.244.227a.328.328,0,0,0,.049.041c.082.068.17.129.256.193a.436.436,0,0,0,.051.033,2.306,2.306,0,0,0,.34.189.271.271,0,0,0,.031.02,3.7,3.7,0,0,0,1.24.354.661.661,0,0,1,.141.014c.2.012.41.006.615,0a3.686,3.686,0,0,0,1.815-.582l.006.008c.016-.014.031-.027.047-.039.084-.061.166-.127.248-.195a.6.6,0,0,0,.057-.049,2.7,2.7,0,0,0,.27-.3l.012.006.023-.041c.07-.094.133-.193.195-.291,0-.006.014-.016.018-.023l-.008-.008.027-.033a2.4,2.4,0,0,0,.248-.723.035.035,0,0,0,.023-.033,1.93,1.93,0,0,0,.023-.242A1.381,1.381,0,0,0,199.7,141Z" transform="translate(-189.041 -137.838)" fill="#fff" stroke="#fff" stroke-width="0.094"/>
    <g id="Group_101" data-name="Group 101" transform="translate(3.953 2.882)">
      <g id="Group_100" data-name="Group 100" clip-path="url(#clip-path)">
        <path id="Path_678" data-name="Path 678" d="M185.74,140.062c.166.052.548-.079.656.041m-.56.464c.159-.055.5-.186.642-.109m-.478.615c.077.025.229-.11.3-.15a1.12,1.12,0,0,1,.352-.123m-.41.806a1.156,1.156,0,0,1,.289-.286c.114-.079.425-.292.558-.219m-.614.888c.09-.072.127-.2.221-.274a1.926,1.926,0,0,1,.407-.164m-.242.72c.027-.2.228-.437.42-.42m-.123.7c.1-.01.187-.237.256-.314a.654.654,0,0,1,.345-.191m-.014.751c-.007-.143.142-.554.314-.533m.123.669c-.007-.169.08-.679.287-.7m.164.97a.879.879,0,0,1,.15-.751m.41.806c-.021-.2-.217-.6,0-.751m.6.615a1.137,1.137,0,0,1-.109-.656m.683.56a1.357,1.357,0,0,1-.189-.407c-.016-.091.012-.221,0-.29m.669.492a.714.714,0,0,1-.15-.642m.615.437a1.592,1.592,0,0,1-.232-.7m.683.26c-.173-.117-.394-.328-.369-.56m.847.191a1.472,1.472,0,0,1-.738-.505m.956.055c-.19-.041-.817-.285-.779-.533m.984.055a2.9,2.9,0,0,1-.861-.369m1-.068a2.666,2.666,0,0,1-.575-.1c-.188-.032-.362-.1-.545-.137m.956-.191a2.392,2.392,0,0,1-.915-.191" transform="translate(-185.889 -139.848)" fill="none" stroke="#d1d1d1" stroke-width="2"/>
      </g>
    </g>
  </g>
</svg>
