<svg xmlns="http://www.w3.org/2000/svg" width="15.825" height="7.714" viewBox="0 0 15.825 7.714">
  <g id="surface1" transform="translate(-0.53 -0.449)">
    <path id="Path_1102" data-name="Path 1102" d="M.728,2.694a1.071,1.071,0,0,1,.02-.178.136.136,0,0,0,.015-.05c0-.02.009-.034.013-.053S.788,2.387.8,2.368a.241.241,0,0,0,.021-.045A.165.165,0,0,1,.83,2.3c.005-.012,0-.011.009-.022a.062.062,0,0,0,.012-.022.411.411,0,0,1,.03-.067L.9,2.144a.038.038,0,0,1,.014-.02.393.393,0,0,0,.035-.062L.96,2.053A.408.408,0,0,0,.99,2a.428.428,0,0,1,.055-.074L1.1,1.853a.266.266,0,0,0,.033-.032,1.027,1.027,0,0,0,.069-.094.171.171,0,0,1,.013-.021c.007-.01,0-.011.01-.022s.012-.013.015-.019.005-.015.009-.022.01-.011.014-.02l.018-.048c.008-.038.03-.038.043-.12a.512.512,0,0,1,.019-.081.169.169,0,0,0,.008-.024c.008-.033.005-.047.028-.07s.044.006.052.03a.871.871,0,0,1,.038.093.322.322,0,0,0,.02.045c.007.015.012.032.019.047s.041.066.047.084c.012.035.033.051.046.085a.28.28,0,0,0,.025.041c.014.015.041.063.052.079s.011.035.021.045l.014.019c0,.008.009.009.015.017L1.76,1.9a.094.094,0,0,1,.013.018l.026.04c.014.016.025.043.04.057a.041.041,0,0,1,.009.009l.023.025c.008.009.008.006.016.018s.039.05.054.078a.152.152,0,0,0,.013.018c.015.019.048.049.062.069l.025.041c.01.012.009,0,.016.019a.72.72,0,0,1,.057.106.04.04,0,0,0,.012.022.34.34,0,0,1,.034.064c.007.016.009.033.018.048a.434.434,0,0,1,.042.152.461.461,0,0,1,.007.059c0,.015.009.019.013.052a.629.629,0,0,1-.013.234.082.082,0,0,1,0,.03.06.06,0,0,0-.006.025.3.3,0,0,1-.012.054l-.027.072a.07.07,0,0,0-.008.023c-.008.041-.019.041-.035.065,0,.006-.007.015-.01.021a.052.052,0,0,0-.009.025c0,.02-.013.022-.021.043s-.008.01-.014.018-.007.014-.012.022-.019.023-.027.038a.2.2,0,0,1-.01.022L2,3.529C2,3.537,2,3.543,1.991,3.552c-.02.031-.011.014-.031.035a.473.473,0,0,0-.038.059c0,.006-.021.021-.031.035s0,.012-.014.02-.008.008-.016.016a.174.174,0,0,0-.032.033.189.189,0,0,1-.027.039l-.029.036c-.008.01-.008,0-.017.018s-.008.007-.016.016l-.03.035c-.014.015-.02.03-.028.038a.351.351,0,0,1-.042.024c-.018.006-.03-.009-.04-.02a.137.137,0,0,1-.016-.05L1.54,3.8l-.056-.075a.093.093,0,0,1-.03-.035c-.008-.013-.024-.021-.033-.033S1.41,3.648,1.4,3.64s0-.009-.013-.018-.021-.019-.036-.03L1.27,3.543c-.009-.007,0-.006-.019-.015s-.011-.009-.017-.014A.179.179,0,0,0,1.211,3.5l-.02-.012c-.031-.017-.037-.031-.079-.053-.016-.008-.009,0-.017-.014L1,3.351c-.01-.01-.019-.026-.028-.038-.042-.051-.075-.063-.1-.13C.868,3.167.86,3.159.852,3.143L.828,3.1C.817,3.089.819,3.08.8,3.059a.281.281,0,0,1-.03-.067c0-.015-.008-.037-.012-.054C.755,2.9.741,2.876.735,2.835A.907.907,0,0,1,.728,2.694ZM1.6,4.186c0-.04.02-.059.04-.087a.263.263,0,0,0,.03-.033.249.249,0,0,0,.023-.04c.006-.014.005,0,.034-.029l.017-.015a.523.523,0,0,0,.043-.052.485.485,0,0,1,.047-.05.331.331,0,0,0,.06-.067c.006-.006.006-.013.013-.019l.031-.032c.006-.008.01-.008.016-.015a.107.107,0,0,0,.012-.019c.011-.018.022-.017.034-.03s.026-.041.043-.052l.018-.016c.012-.011.005,0,.014-.018a.176.176,0,0,1,.015-.017l.014-.017c.016-.02.029-.024.045-.049a.128.128,0,0,1,.014-.017.47.47,0,0,0,.041-.053.124.124,0,0,1,.016-.016c.014-.015.038-.063.05-.076s.007-.009.012-.023a.224.224,0,0,1,.01-.021c0-.007.005-.017.009-.023s.008-.011.012-.019.005-.014.01-.022a.334.334,0,0,0,.034-.093l.029-.1a.745.745,0,0,0,.021-.172.288.288,0,0,0,0-.113L2.4,2.609a.14.14,0,0,0-.011-.052.988.988,0,0,1-.031-.1.147.147,0,0,0-.023-.041,1.464,1.464,0,0,0-.074-.147l-.007-.008-.006-.011c-.013-.02-.047-.054-.056-.073a.085.085,0,0,0-.014-.018l-.027-.036c-.006-.006-.011-.008-.017-.014L2.1,2.081c-.013-.012-.019-.022-.031-.033s-.006,0-.014-.018S2.032,2.008,2.024,2s0-.008-.015-.016l-.088-.1c-.008-.009-.007,0-.016-.016a.4.4,0,0,1-.04-.055c-.011-.019-.045-.042-.06-.069s-.022-.028-.027-.037-.019-.026-.024-.039-.021-.019-.032-.033-.006-.015-.01-.021a.371.371,0,0,0-.024-.04A.217.217,0,0,1,1.654,1.5L1.6,1.4a.2.2,0,0,1-.009-.023.151.151,0,0,0-.022-.041c-.02-.021-.009-.022-.02-.045s-.012-.029-.019-.044S1.509,1.224,1.5,1.21l-.03-.1A.876.876,0,0,1,1.457,1c0-.01,0-.019,0-.029A.2.2,0,0,1,1.439.891c0-.042,0-.085,0-.127s0-.087,0-.126A.452.452,0,0,1,1.449.52c0-.007.024-.069,0-.071S1.4.519,1.4.528a.11.11,0,0,1-.007.024A.29.29,0,0,0,1.379.6c0,.018-.01.029-.015.048s-.013.078-.017.11a.233.233,0,0,1-.01.052,1.389,1.389,0,0,0-.022.171c-.018.081,0,.175-.016.237a.7.7,0,0,1-.026.1.384.384,0,0,1-.019.044.229.229,0,0,0-.019.044.249.249,0,0,0-.007.025l-.069.153a.1.1,0,0,1-.013.018c-.008.009-.006.01-.012.019s-.014.016-.029.037l-.012.019a.252.252,0,0,1-.026.038c-.006.007,0,.013-.012.02s-.03.034-.045.05S1,1.8,1,1.811s-.008.008-.016.016a.182.182,0,0,0-.014.017c-.009.014-.022.019-.031.033A.079.079,0,0,1,.924,1.9C.908,1.911.9,1.93.88,1.95a.357.357,0,0,1-.027.037.231.231,0,0,0-.042.053c-.013.019-.046.056-.055.074l-.038.057a.6.6,0,0,0-.042.087.266.266,0,0,0-.023.04.251.251,0,0,1-.03.065c0,.007-.006.015-.01.022A.146.146,0,0,0,.6,2.4a.235.235,0,0,1-.011.021c-.009.019-.027.118-.038.152a.676.676,0,0,0-.024.168.666.666,0,0,0,.017.172.71.71,0,0,1,.025.1c.034.136.056.109.074.181a.26.26,0,0,0,.02.044l.014.018a.1.1,0,0,0,.013.019C.7,3.286.7,3.293.707,3.3s.007,0,.015.016a.121.121,0,0,0,.014.017c.006.007.011.01.015.016s0,.011.013.018l.068.061c.008.007.012.006.018.013a.882.882,0,0,0,.076.065.04.04,0,0,0,.01.007c.021.012.029.032.053.042l.01,0,.01.007c.019.012.01.012.038.025a.3.3,0,0,1,.054.043.328.328,0,0,0,.043.02l.081.046c.026.011.045.031.058.037a.162.162,0,0,1,.023.009c.013.008.025.018.038.025.049.025.034.026.053.044a.15.15,0,0,1,.031.032l.015.016c.009.009.007.01.014.018s.007,0,.014.018a.161.161,0,0,0,.025.038.146.146,0,0,1,.015.048c.009.03.029.057.04.086a.207.207,0,0,1,.014.052.137.137,0,0,1,0,.055.014.014,0,0,1,0,.007H1.6" fill="#0054a6" fill-rule="evenodd"/>
    <path id="Path_1103" data-name="Path 1103" d="M18.492,47.292a.764.764,0,0,0,.006.119.2.2,0,0,1,.013.048.819.819,0,0,0,.04.147.439.439,0,0,0,.037.087.1.1,0,0,0,.023.038.937.937,0,0,1,.082.106.266.266,0,0,0,.061.046.567.567,0,0,1,.06.05c.008.007.012.006.018.013a.091.091,0,0,0,.015.014c.011.01.019.027.03.034s.006,0,.016.016.021.019.029.032.042.034.057.068a.1.1,0,0,0,.01.022l.049.075c.006.008.01.011.014.017s.009.023.026.035.031,0,.035-.02-.008-.029-.013-.045l-.014-.049a.481.481,0,0,1-.007-.053c0-.021-.007-.034-.009-.054a.8.8,0,0,1-.007-.121c0-.054.016-.06.054-.086a.11.11,0,0,1,.111.005c.036.035.027.025.04.062s.018,0,.017.087a.308.308,0,0,0,.007.064c.015,0,.022,0,.031-.007a.392.392,0,0,0,.041-.051c.023-.04.03-.036.039-.056a.539.539,0,0,0,.05-.091A.411.411,0,0,0,19.5,47.7a.472.472,0,0,1,.022-.072,1,1,0,0,0,.007-.191.41.41,0,0,0-.027-.129c-.009-.027-.005-.063-.014-.09l-.014-.04c-.006-.017-.014-.022-.018-.036a.241.241,0,0,0-.015-.038.115.115,0,0,0-.018-.033c-.005-.007,0-.011-.008-.018a.111.111,0,0,1-.011-.016.117.117,0,0,1-.005-.019c-.006-.017-.015,0-.02-.035a.192.192,0,0,0-.015-.035c0-.011-.006-.008-.011-.016s-.006-.01-.011-.016l-.026-.027L19.3,46.88c-.008-.008-.015-.02-.025-.029s-.006,0-.011-.013l-.036-.044c-.014-.014-.041-.051-.048-.056s-.011-.014-.022-.029-.022-.044-.029-.051l-.045-.06c-.018-.026-.03-.057-.047-.085s-.023-.056-.033-.071a.93.93,0,0,1-.052-.109c-.005-.01-.008-.026-.013-.038s-.009-.068-.021-.084a.018.018,0,0,0-.033,0,1.44,1.44,0,0,1-.047.164.117.117,0,0,0-.012.039l-.024.08c-.006.012-.014.024-.018.035a.371.371,0,0,1-.022.056.111.111,0,0,0-.007.02c0,.015-.011.024-.016.038s0,.014-.006.022a.535.535,0,0,1-.027.05.393.393,0,0,0-.013.041l-.033.071a.2.2,0,0,1-.013.038.2.2,0,0,1-.027.054.066.066,0,0,0-.012.015l-.009.017c0,.007-.007.01-.01.017a.2.2,0,0,1-.017.034l-.037.095a.1.1,0,0,1,0,.022c-.009.025-.015.056-.022.082a.227.227,0,0,0-.017.092" transform="translate(-17.472 -44.503)" fill="#0054a6" fill-rule="evenodd"/>
    <path id="Path_1104" data-name="Path 1104" d="M18.247,137.63a.284.284,0,0,1,.089-.21.345.345,0,0,1,.284-.091.321.321,0,0,1,.211.116c.07.1.063.111.063.25v1.312c0,.178.046.415-.117.536a.392.392,0,0,1-.245.057.334.334,0,0,1-.208-.1.347.347,0,0,1-.056-.092.187.187,0,0,1-.016-.106l0-.686c.007-.156,0-.348,0-.5Zm9.118.772c0,.056-.181.035-.24.035h-.277c-.167,0-.157.03-.157-.1,0-.24-.007-.514,0-.746,0-.086.024-.087.056-.143a.21.21,0,0,1,.105-.084c.113-.047.052-.035.238-.035a.325.325,0,0,1,.247.18.552.552,0,0,1,.029.108Zm.847.115a.079.079,0,0,0,.036-.012.9.9,0,0,0-.009-.142,1.206,1.206,0,0,0-.064-.379c-.013-.035-.023-.078-.036-.116a.581.581,0,0,0-.028-.052c-.008-.019-.009-.035-.019-.053L28,137.628a.936.936,0,0,0-.189-.2l-.193-.115a.525.525,0,0,0-.116-.043.4.4,0,0,0-.128-.032,1.014,1.014,0,0,0-.3-.031,1.171,1.171,0,0,0-.413.071c-.051.022-.037,0-.113.039-.031.017-.077.032-.109.049l-.077.046a1.323,1.323,0,0,0-.273.222,1,1,0,0,0-.072.082c-.045.063-.08.114-.121.18-.01.017-.018.052-.047.105a.8.8,0,0,0-.069.235c0,.029-.018.1-.018.123a1.414,1.414,0,0,0,.009.241.969.969,0,0,0,.041.181.482.482,0,0,0,.034.118.151.151,0,0,1,.027.046c.036.1.031.053.055.1l.122.178a1.334,1.334,0,0,0,.287.248.877.877,0,0,0,.154.079,1.5,1.5,0,0,0,.282.106c.048.008.095.013.14.019a1.273,1.273,0,0,0,.493-.018.326.326,0,0,0,.073-.025c.03-.011.051-.01.081-.023l.07-.033c.077-.034.081-.047.128-.07a.977.977,0,0,0,.175-.131.352.352,0,0,0,.045-.049c.054-.057.176-.18.155-.266-.029-.012-.046-.016-.066.012s-.028.044-.036.058l-.182.208c-.016.014-.033.033-.05.045s-.036.017-.06.035a.472.472,0,0,1-.123.075,1.113,1.113,0,0,1-.708.079.254.254,0,0,1-.118-.086.365.365,0,0,1-.1-.3c0-.038-.008-.641,0-.66s.055-.016.075-.016Zm-7.169.058a.455.455,0,0,1,.085-.195c.15-.2.309-.155.471-.256.022-.014.069-.059.1-.032.007.007,0,.216,0,.264l.005.875c0,.1-.21.255-.338.276a.275.275,0,0,1-.321-.276Zm.043-.81a.448.448,0,0,0-.033-.113.359.359,0,0,0-.274-.179c-.118-.015-.006-.083.1-.11a.465.465,0,0,1,.122-.033,1.23,1.23,0,0,1,.341,0,.183.183,0,0,1,.075.025c.025.012.048.013.073.026a.4.4,0,0,1,.21.493c0,.165-.293.23-.411.276a.287.287,0,0,1-.052.02c-.068.017-.2.073-.254.087l-.458.164c-.015.007-.034.013-.05.021s-.031.016-.045.024l-.037.026a.691.691,0,0,0-.208.2.674.674,0,0,0-.089.172.66.66,0,0,0,.018.428.43.43,0,0,0,.045.083.936.936,0,0,0,.308.231c.03.013.074.022.108.034a1.428,1.428,0,0,0,.361.057,1.9,1.9,0,0,0,.347-.05,2.147,2.147,0,0,0,.25-.1c.077-.038.107-.075.151-.078.036.032.02.06.016.1-.012.146.057.1.152.1.148,0,.8.006.856,0,.1-.015.072-.121-.048-.121h-.082a.062.062,0,0,1-.025-.029c-.012-.031,0-1.514,0-1.56a.568.568,0,0,0-.3-.571c-.03-.015-.047-.03-.076-.043s-.055-.018-.083-.031a2.106,2.106,0,0,0-.369-.088,2.162,2.162,0,0,0-.411-.009c-.055,0-.1,0-.154,0l-.259.041c-.04.01-.069.022-.118.032a.347.347,0,0,0-.109.039.886.886,0,0,0-.187.107.409.409,0,0,0-.143.4c.019.137.174.189.217.215a.26.26,0,0,0,.128.026.4.4,0,0,0,.245-.059.344.344,0,0,0,.046-.03A.3.3,0,0,0,21.085,137.765Zm-7.074-1.891c0-.079.046-.072.122-.071s.131-.021.11-.081c-.006-.016-.035-.034-.061-.042a.332.332,0,0,0-.092-.006h-1a1,1,0,0,0-.29.014c-.014.009-.041.031-.041.051s.026.04.048.051c.077.039.218-.031.242.045.009.028,0,3.155,0,3.537,0,.051.016.134-.014.162s-.051.015-.079.012c-.069-.009-.241,0-.183.088.03.047.1.033.164.033h1.2c.136,0,.169-.134-.068-.121-.062,0-.067-.043-.059-.113l0-.357c0-.244,0-.466,0-.707v-1.453C14.013,136.592,14.022,136.19,14.011,135.874Zm1.579,1.349c-.06-.019-.078,0-.123.015-.03.008-.207.018-.257.024a.376.376,0,0,1-.058,0l-.353,0c-.089,0-.174-.025-.242.021s0,.12.111.1c.149-.021.1.09.106.135.008.09,0,.489,0,.634,0,.01,0,.038,0,.057,0,.073,0,.146,0,.232,0,.143.006.314,0,.479l0,.345c0,.027,0,.035,0,.053a.444.444,0,0,1,0,.062.506.506,0,0,0,0,.1c0,.112-.1.05-.189.07a.062.062,0,0,0-.054.074c.019.067.156.048.237.048h.851c.084,0,.217.018.249-.036a.051.051,0,0,0-.031-.078.412.412,0,0,0-.133-.009c-.149,0-.093-.048-.1-.142a.258.258,0,0,1,0-.061v-.393c0-.058,0-.141,0-.205.009-.226-.009-.519,0-.748v-.154c0-.024.007-.029.006-.058a.21.21,0,0,1,.006-.117.474.474,0,0,1,.171-.229c.076-.059.03-.022.09-.053a.169.169,0,0,1,.112-.026c.105,0,.15.017.189.085a2.033,2.033,0,0,1,.022.5v1.305c0,.251.04.309-.1.294-.118-.013-.151.064-.086.106a.2.2,0,0,0,.121.017h.858a.682.682,0,0,0,.259-.019c.034-.02.079-.108-.119-.1-.149,0-.1-.043-.1-.16,0-.052,0-.175,0-.251V138.1a.886.886,0,0,0-.1-.56.552.552,0,0,0-.21-.2.879.879,0,0,0-.089-.046l-.108-.03a1.778,1.778,0,0,0-.54,0,.6.6,0,0,0-.151.054.379.379,0,0,0-.122.081c-.024.024-.041.052-.087.048C15.574,137.4,15.63,137.3,15.59,137.223Zm7.363.118c.006.022.018.026.037.035.128.06.2-.07.2.113l0,1.866c.021.244-.019.2-.133.2-.043,0-.089.01-.1.038s.016.069.046.079.962.006,1.113.006c.043,0,.215.009.167-.088-.036-.072-.193-.009-.241-.042s-.02-.191-.02-.242v-1.543a.269.269,0,0,1,.022-.117l.05-.083a.68.68,0,0,1,.058-.075c.14-.134.382-.178.452-.007.027.066.011.879.011,1.022,0,.111.008,1.006,0,1.033s-.085.019-.124.02-.086.017-.1.043c-.033.086.111.08.173.08h.848c.072,0,.22.013.251-.025a.054.054,0,0,0-.015-.087.2.2,0,0,0-.117-.009c-.152.007-.081-.079-.1-.207a.169.169,0,0,1,0-.056c.008-.1,0-.346,0-.466,0-.042,0-.083,0-.125,0-.215.008-.842-.018-.991a.729.729,0,0,0-.117-.215.109.109,0,0,1-.031-.036.437.437,0,0,0-.11-.092.722.722,0,0,0-.24-.1,2.272,2.272,0,0,0-.408-.015.729.729,0,0,0-.233.052.756.756,0,0,0-.169.1c-.021.025-.034.066-.071.057s-.02-.035-.02-.1c0-.087.029-.182-.1-.131a4.059,4.059,0,0,1-.782.03C23.1,137.259,22.931,137.253,22.954,137.341Zm-4.067-.056a.105.105,0,0,1-.084,0,.758.758,0,0,0-.252-.043.871.871,0,0,0-.157.006.515.515,0,0,0-.16.019,1.44,1.44,0,0,0-.147.045,1.24,1.24,0,0,0-.219.11.843.843,0,0,0-.132.1c-.025.026-.07.049-.1.084l-.062.075a1.243,1.243,0,0,0-.241.527.931.931,0,0,0-.017.321,1.215,1.215,0,0,0,.049.307.764.764,0,0,0,.051.127,1.338,1.338,0,0,0,.093.176l.078.1a.211.211,0,0,1,.042.053,1.479,1.479,0,0,0,.26.2c.019.013.04.022.063.034a1.085,1.085,0,0,0,.447.13,1.037,1.037,0,0,0,.343-.016c.022-.006.047-.015.068-.023a.068.068,0,0,1,.072.007c.058.05.025.042.151.035.153-.009.925.008.987,0s.078-.072.028-.1a.43.43,0,0,0-.171-.012c-.088,0-.1,0-.1-.082v-.16c.005-.114,0-.326,0-.444s0-.219,0-.332c0-.073,0-.164,0-.227,0-.024,0-.044,0-.078,0-.216.01-.448,0-.657-.006-.146,0-.462,0-.617v-1.1a1.107,1.107,0,0,0,0-.172c-.033-.019-.046-.013-.087-.01l-.656,0a1.011,1.011,0,0,0-.112,0c-.059,0-.1,0-.162,0-.1,0-.148-.013-.206.014-.09.042-.047.091,0,.108.124.043.353-.054.342.079-.008.093-.007.517,0,.6s.006.779-.006.806" transform="translate(-11.894 -131.533)" fill="#f26522" fill-rule="evenodd"/>
  </g>
</svg>
