<svg id="myntra" xmlns="http://www.w3.org/2000/svg" width="12.971" height="8.722" viewBox="0 0 12.971 8.722">
  <path id="Path_680" data-name="Path 680" d="M395.894,569.9l-.017.005a.053.053,0,0,0,.017-.005m-.347.01-.007,0,.007,0m.291,0-.038.007.038-.007m-.07.009-.031,0a.064.064,0,0,0,.031,0" transform="translate(-389.199 -561.206)" fill="#f37320" fill-rule="evenodd"/>
  <path id="Path_681" data-name="Path 681" d="M393.144,162.344l-.028,0,.028,0m-.255-.009-.049-.01c.016,0,.031.007.049.01m.337-.007a.3.3,0,0,1-.042.01.3.3,0,0,0,.042-.01m-.2.023a.654.654,0,0,1-.129-.016.534.534,0,0,0,.129.016m.058,0-.044,0,.044,0m2.782-7.248h0a.192.192,0,0,0-.077-.012.38.38,0,0,1,.1.023l-.023-.01" transform="translate(-386.546 -153.63)" fill="#f15e22" fill-rule="evenodd"/>
  <path id="Path_682" data-name="Path 682" d="M554.668,155.094h0a.092.092,0,0,1-.026.01.378.378,0,0,1,.126-.021.2.2,0,0,0-.1.01" transform="translate(-545.523 -153.623)" fill="#ec008b" fill-rule="evenodd"/>
  <path id="Path_683" data-name="Path 683" d="M608.919,171.2h0a.205.205,0,0,0-.078-.012.28.28,0,0,1,.1.023l-.023-.01" transform="translate(-598.778 -169.452)" fill="#f15e22" fill-rule="evenodd"/>
  <path id="Path_684" data-name="Path 684" d="M601.668,171.133h0a.081.081,0,0,1-.028.012.335.335,0,0,1,.124-.023.22.22,0,0,0-.1.01" transform="translate(-591.703 -169.383)" fill="#ec008b" fill-rule="evenodd"/>
  <path id="Path_685" data-name="Path 685" d="M610.919,172.287h0a.2.2,0,0,0-.078-.01.284.284,0,0,1,.1.021l-.023-.01" transform="translate(-600.743 -170.519)" fill="#f15e22" fill-rule="evenodd"/>
  <path id="Path_686" data-name="Path 686" d="M603.768,172.177h0c-.009.005-.017.007-.028.012a.328.328,0,0,1,.124-.023.279.279,0,0,0-.1.01" transform="translate(-593.767 -170.41)" fill="#ec008b" fill-rule="evenodd"/>
  <path id="Path_687" data-name="Path 687" d="M35.634,71.907h0l.026-.007c-.693.1-2.228,2.575-3.053,4.841-.877,2.413-.666,3.576.023,3.829h0c.689.249,1.6-.506,2.477-2.92a18.165,18.165,0,0,0,.6-2.039c-.427-1.839-.522-3.536-.077-3.7" transform="translate(-32.029 -71.893)" fill="#f13ab1" fill-rule="evenodd"/>
  <path id="Path_688" data-name="Path 688" d="M242.848,80.192h0c-.693-.255-.9-1.42-.023-3.829.087-.239.18-.481.283-.72-.9-2.154-2.292-4.243-2.868-4.122a.284.284,0,0,1,.124.01h0v0c.446.166.351,1.861-.077,3.7a17.064,17.064,0,0,0,.6,2.038c.693,1.9,1.4,2.772,2.011,2.934a.4.4,0,0,1-.052-.014" transform="translate(-236.608 -71.515)" fill="#fd913c" fill-rule="evenodd"/>
  <path id="Path_689" data-name="Path 689" d="M222.444,71.771h0a.268.268,0,0,0-.119-.01c-.012,0-.017.005-.028.007h0c-.445.167-.351,1.865.075,3.7.424-1.839.52-3.533.075-3.7" transform="translate(-218.688 -71.754)" fill="#f05524" fill-rule="evenodd"/>
  <path id="Path_690" data-name="Path 690" d="M407.43,73c-.645.234-1.867,2.142-2.69,4.1.1.239.2.481.283.72.877,2.411.668,3.576-.023,3.827v0l-.061.017c.609-.157,1.328-1.026,2.018-2.938a16.63,16.63,0,0,0,.586-1.983c-.427-1.823-.536-3.524-.113-3.745" transform="translate(-398.238 -72.974)" fill="#fd913c" fill-rule="evenodd"/>
  <path id="Path_691" data-name="Path 691" d="M356.153,312.55h0c.689-.251.9-1.42.023-3.829-.091-.239-.183-.481-.286-.72-.1.239-.2.481-.283.72-.878,2.411-.666,3.578.023,3.829.017.007.037.01.054.016a.249.249,0,0,0,.049.012h.007a.713.713,0,0,0,.131.017h.056a.17.17,0,0,0,.031-.005l.033,0a.335.335,0,0,0,.037-.007.161.161,0,0,0,.042-.007l.017,0c.023-.009.044-.014.065-.023" transform="translate(-349.395 -303.875)" fill="#f05524" fill-rule="evenodd"/>
  <path id="Path_692" data-name="Path 692" d="M565.448,72.9c.427.213.321,1.915-.108,3.751a17.018,17.018,0,0,0,.584,1.98c.879,2.413,1.788,3.17,2.481,2.92h0c.687-.255.9-1.417.021-3.829-.8-2.189-2.256-4.567-2.98-4.822" transform="translate(-556.036 -72.876)" fill="#f13ab1" fill-rule="evenodd"/>
  <path id="Path_693" data-name="Path 693" d="M543.9,71.623a.4.4,0,0,0-.1-.023.394.394,0,0,0-.124.026c-.419.222-.314,1.919.115,3.747.433-1.833.537-3.536.11-3.751" transform="translate(-534.491 -71.599)" fill="#f05524" fill-rule="evenodd"/>
</svg>
