<svg id="noun-autopay-3656396" xmlns="http://www.w3.org/2000/svg" width="11.893" height="11.892" viewBox="0 0 11.893 11.892">
  <path id="Path_767" data-name="Path 767" d="M267.784,170.973h1.189a1.193,1.193,0,0,0,1.189-1.189v-.595A1.193,1.193,0,0,0,268.973,168h-2.379v2.378H266v.595h.595v.595H266v.595h.595v1.189h.595v-1.189h1.784v-.595h-1.784v-.595Zm-.595-2.378h1.784a.562.562,0,0,1,.595.595v.595a.562.562,0,0,1-.595.595h-1.784Z" transform="translate(-261.838 -164.432)" fill="#bcbcbc"/>
  <path id="Path_768" data-name="Path 768" d="M75.944.655a5.2,5.2,0,0,1,3.092,1.011L77.728,2.974H80.7V0L79.512,1.19A5.729,5.729,0,0,0,75.944,0,5.964,5.964,0,0,0,70,5.947h.714A5.292,5.292,0,0,1,75.944.655Zm5.233,5.292a5.233,5.233,0,0,1-8.325,4.281L74.161,8.92H71.187v2.973L72.377,10.7a5.729,5.729,0,0,0,3.568,1.189,5.964,5.964,0,0,0,5.946-5.946Z" transform="translate(-69.998 -0.001)" fill="#bcbcbc"/>
</svg>
