<svg xmlns="http://www.w3.org/2000/svg" xmlns:xlink="http://www.w3.org/1999/xlink" width="50.325" height="46.36" viewBox="0 0 50.325 46.36">
  <defs>
    <linearGradient id="linear-gradient" x1="0.5" x2="0.5" y2="1" gradientUnits="objectBoundingBox">
      <stop offset="0" stop-color="#fff"/>
      <stop offset="1" stop-color="#fff" stop-opacity="0"/>
    </linearGradient>
  </defs>
  <g id="Group_531" data-name="Group 531" transform="translate(-8532.873 -532.04)">
    <g id="Light" transform="translate(8532.873 532.04)">
      <rect id="Rectangle_1606" data-name="Rectangle 1606" width="35" height="2" rx="1" transform="translate(6.663)" fill="#fff"/>
      <path id="Path_1078" data-name="Path 1078" d="M45.638,47,38.044,91.36H88.369L79,47Z" transform="translate(-38.044 -45)" opacity="0.5" fill="url(#linear-gradient)"/>
    </g>
    <path id="noun-broadband-1158188" d="M138.964,87.5a1.1,1.1,0,0,0-1.1,1.1v8.415H123.6a1.1,1.1,0,0,0-1.1,1.1v3.659a1.1,1.1,0,0,0,1.1,1.1h.334v.366a.366.366,0,1,0,.732,0v-.366H139.3v.366a.366.366,0,0,0,.732,0v-.366h.4a1.1,1.1,0,0,0,1.1-1.1V98.11a1.1,1.1,0,0,0-1.1-1.1h-.366V88.6A1.1,1.1,0,0,0,138.964,87.5Zm0,.732a.367.367,0,0,1,.366.366v8.415H138.6V88.6A.367.367,0,0,1,138.964,88.232Zm-2.561,2.2a5.123,5.123,0,0,0-5.122,5.122.366.366,0,0,0,.732,0,4.392,4.392,0,0,1,4.39-4.39.366.366,0,1,0,0-.732Zm0,1.463a3.66,3.66,0,0,0-3.659,3.659.366.366,0,1,0,.732,0,2.928,2.928,0,0,1,2.927-2.927.366.366,0,1,0,0-.732Zm0,1.463a2.179,2.179,0,0,0-1.552.643,2.208,2.208,0,0,0-.643,1.552.366.366,0,1,0,.732,0,1.473,1.473,0,0,1,.429-1.035,1.454,1.454,0,0,1,1.035-.429.366.366,0,1,0,0-.732Zm.01,1.464a.732.732,0,1,0,.507.214A.731.731,0,0,0,136.413,94.817ZM123.6,97.744h3.293v1.829a1.1,1.1,0,0,0,1.1,1.1h10.976a1.1,1.1,0,0,0,1.1-1.1V97.744h.366a.367.367,0,0,1,.366.366v3.659a.367.367,0,0,1-.366.366H123.6a.367.367,0,0,1-.366-.366V98.11A.367.367,0,0,1,123.6,97.744Zm4.025,0H139.33v1.829a.367.367,0,0,1-.366.366H127.988a.367.367,0,0,1-.366-.366Zm-3.293.732a.366.366,0,0,0-.366.366v1.463a.366.366,0,0,0,.366.366h1.463a.366.366,0,0,0,.366-.366V98.842a.366.366,0,0,0-.366-.366Zm4.39,0a.366.366,0,0,0,0,.732h.732a.366.366,0,1,0,0-.732Zm2.2,0a.366.366,0,0,0,0,.732h.732a.366.366,0,1,0,0-.732Zm2.2,0a.366.366,0,0,0,0,.732h.732a.366.366,0,1,0,0-.732Zm2.2,0a.366.366,0,0,0,0,.732h.732a.366.366,0,0,0,0-.732Zm2.2,0a.366.366,0,0,0,0,.732h.732a.366.366,0,0,0,0-.732Zm-12.806.732h.732v.732H124.7Z" transform="translate(8425.5 467.5)" fill="#fff" opacity="0.5"/>
  </g>
</svg>
