<svg xmlns="http://www.w3.org/2000/svg" xmlns:xlink="http://www.w3.org/1999/xlink" width="50.325" height="46.36" viewBox="0 0 50.325 46.36">
  <defs>
    <linearGradient id="linear-gradient" x1="0.5" x2="0.5" y2="1" gradientUnits="objectBoundingBox">
      <stop offset="0" stop-color="#fff"/>
      <stop offset="1" stop-color="#fff" stop-opacity="0"/>
    </linearGradient>
  </defs>
  <g id="Group_528" data-name="Group 528" transform="translate(-8532.873 -237.04)">
    <g id="Light" transform="translate(8532.873 237.04)">
      <rect id="Rectangle_1606" data-name="Rectangle 1606" width="35" height="2" rx="1" transform="translate(6.663)" fill="#fff"/>
      <path id="Path_1078" data-name="Path 1078" d="M45.638,47,38.044,91.36H88.369L79,47Z" transform="translate(-38.044 -45)" opacity="0.5" fill="url(#linear-gradient)"/>
    </g>
    <path id="Path_1125" data-name="Path 1125" d="M104.972,18.443a5.963,5.963,0,0,0-1.561.2.428.428,0,0,0,.221.827,5.135,5.135,0,0,1,6.289,6.289.426.426,0,0,0,.3.523.417.417,0,0,0,.112.015.426.426,0,0,0,.411-.318,5.987,5.987,0,0,0-5.775-7.539Zm0,1.711a4.244,4.244,0,0,0-1.115.146.427.427,0,0,0,.221.826,3.426,3.426,0,0,1,4.193,4.193.427.427,0,0,0,.3.523.417.417,0,0,0,.112.015.425.425,0,0,0,.411-.318,4.276,4.276,0,0,0-4.125-5.385Zm-6.66.217a.427.427,0,0,0-.3.125,7.693,7.693,0,0,0-1.284,9.187,2.169,2.169,0,0,0-.232.194,2.139,2.139,0,0,0,.329,3.3l-.77,5.011a1.282,1.282,0,0,0-.908,1.22v.856a.428.428,0,0,0,.428.428h6.846a.428.428,0,0,0,.428-.428v-.856a1.281,1.281,0,0,0-.984-1.243l-2.283-5.328a2.165,2.165,0,0,0,.145-.174,7.689,7.689,0,0,0,9.177-1.272.428.428,0,0,0,0-.605l-4.842-4.84.7-.7a.842.842,0,0,0,.814-.209.856.856,0,1,0-1.21-1.21.841.841,0,0,0-.209.814l-.7.7-4.84-4.84a.427.427,0,0,0-.3-.125Zm.008,1.041,4.817,4.817c.005,0,.007.011.012.017s.013.008.018.013l4.817,4.817a6.835,6.835,0,0,1-9.369-.294,6.846,6.846,0,0,1-.294-9.369Zm6.649.451a2.524,2.524,0,0,0-.667.089.427.427,0,1,0,.221.826,1.713,1.713,0,0,1,2.1,2.1.426.426,0,0,0,.3.523.4.4,0,0,0,.11.015.427.427,0,0,0,.413-.317,2.567,2.567,0,0,0-2.476-3.232Zm-7.773,8.552A7.048,7.048,0,0,0,98.981,32.2a1.021,1.021,0,0,1-.068.1A1.283,1.283,0,1,1,97.1,30.484a1.154,1.154,0,0,1,.1-.067Zm1.673,2.926,2.046,4.779H96.925l.712-4.626a2.2,2.2,0,0,0,.368.035,2.14,2.14,0,0,0,.861-.187Zm-2.439,5.634h5.134a.428.428,0,0,1,.428.428v.428H96v-.428a.428.428,0,0,1,.428-.428Z" transform="translate(8454.858 238.557)" fill="#fff" opacity="0.5"/>
  </g>
</svg>
