<svg xmlns="http://www.w3.org/2000/svg" xmlns:xlink="http://www.w3.org/1999/xlink" width="50.325" height="46.36" viewBox="0 0 50.325 46.36">
  <defs>
    <linearGradient id="linear-gradient" x1="0.5" x2="0.5" y2="1" gradientUnits="objectBoundingBox">
      <stop offset="0" stop-color="#fff"/>
      <stop offset="1" stop-color="#fff" stop-opacity="0"/>
    </linearGradient>
  </defs>
  <g id="Group_538" data-name="Group 538" transform="translate(-8347.873 -62.04)">
    <g id="Light" transform="translate(8347.873 62.04)">
      <rect id="Rectangle_1606" data-name="Rectangle 1606" width="35" height="2" rx="1" transform="translate(6.663)" fill="#fff"/>
      <path id="Path_1078" data-name="Path 1078" d="M45.638,47,38.044,91.36H88.369L79,47Z" transform="translate(-38.044 -45)" opacity="0.5" fill="url(#linear-gradient)"/>
    </g>
    <path id="loan" d="M22.994,16.693l-5.484,2.835-.385-.726,3.919-2.023.051-.024a.772.772,0,0,0,.321-1.051l-.186-.35h.013l-.9-1.664L16.845,7.1l.825-.429Zm1.589,1.916H26.96a.221.221,0,0,1,.221.232v5.767a.237.237,0,0,1-.221.235H24.583a.237.237,0,0,1-.235-.235V18.841a.235.235,0,0,1,.235-.232Zm-1,5.725V19.127H21.244a8.766,8.766,0,0,0-2.981,1.343H16.444c-.825.049-1.257.885-.456,1.434a3.366,3.366,0,0,0,2.343.363.392.392,0,1,1,0,.772c-.221.018-.443-.033-.664-.033a2.668,2.668,0,0,1-2.505-1.058l-.274-.637-2.7-1.341c-1.354-.443-2.317.971-1.328,1.956a35.524,35.524,0,0,0,6.028,3.541,4.066,4.066,0,0,0,4.481,0l2.213-1.14ZM3.207,2.094a.42.42,0,0,1,.069-.261c.144-.193.487-.137.708-.137a3.207,3.207,0,0,0,.682-.053,7.918,7.918,0,0,0,.974-.323c.825-.3,1.567-.516,2.355-.8,1.77-.635,1.239-.772,3.056,0a19.748,19.748,0,0,1,2.282,1.144,1.427,1.427,0,0,1,.29.208,1.37,1.37,0,0,1,.221.292c.695,1.011,1.29,2.036,1.861,3.06a1,1,0,0,1,.142.916c-.538.885-1.5-.374-2.545-1.208-.443-.352-1.033-.664-1.549-1.02a8.213,8.213,0,0,0-1.671-.684C9,3.134,8.909,4.688,10.332,4.745a6.088,6.088,0,0,1,3.512,1.719c.522.752.235,1.492-.828,1.465l-.885-.166a5.094,5.094,0,0,0-2.846-.044,6.668,6.668,0,0,1-2.434.146,2.545,2.545,0,0,1-1.2-.628,3.941,3.941,0,0,0-.7-.491A2.656,2.656,0,0,0,4.3,6.471c-.339-.082-.817.033-1.014-.259a.531.531,0,0,1-.082-.29ZM.221,1.134H2.434a.221.221,0,0,1,.221.221V6.728a.221.221,0,0,1-.221.221H.221A.221.221,0,0,1,0,6.728V1.353a.221.221,0,0,1,.221-.221ZM15.269,11.222a1.5,1.5,0,1,1-1.5,1.5,1.5,1.5,0,0,1,1.5-1.5Zm.69-4.2L20.8,16.146l-5.842,3.023L9.713,9.3l1.843-.954.064.013,1.272.237A.582.582,0,0,0,13,8.6a2.317,2.317,0,0,0,.69-.077L12.018,9.4a.974.974,0,0,1-.416,1.312l3.3,6.1a.974.974,0,0,1,1.312.416l2.31-1.2a.971.971,0,0,1,.416-1.31l-3.3-6.1h0A.974.974,0,0,1,14.331,8.2l-.031.018a1.328,1.328,0,0,0,.321-.4,1.41,1.41,0,0,0,.157-.617,1.549,1.549,0,0,0,0-.221,1.127,1.127,0,0,0,1.184.033Z" transform="translate(8359.5 79.511)" fill="none" stroke="#fff" stroke-width="0.5" fill-rule="evenodd" opacity="0.5"/>
  </g>
</svg>
