<svg xmlns="http://www.w3.org/2000/svg" width="24" height="24" viewBox="0 0 24 24">
  <g id="bell" transform="translate(0.244)">
    <rect id="Rectangle_1560" data-name="Rectangle 1560" width="24" height="24" transform="translate(-0.244)" fill="#fff" opacity="0"/>
    <path id="Path_802" data-name="Path 802" d="M20.52,15.21l-1.8-1.81V8.94A6.86,6.86,0,0,0,12.9,2.06,6.74,6.74,0,0,0,5.28,8.73V13.4l-1.8,1.81A1.64,1.64,0,0,0,4.64,18H8v.34A3.84,3.84,0,0,0,12,22a3.84,3.84,0,0,0,4-3.66V18h3.36a1.64,1.64,0,0,0,1.16-2.79ZM14,18.34A1.88,1.88,0,0,1,12,20a1.88,1.88,0,0,1-2-1.66V18h4ZM5.51,16l1.18-1.18a2,2,0,0,0,.59-1.42V8.73A4.73,4.73,0,0,1,8.9,5.17,4.67,4.67,0,0,1,12.64,4a4.86,4.86,0,0,1,4.08,4.9v4.5a2,2,0,0,0,.58,1.42L18.49,16Z" fill="#fff"/>
  </g>
</svg>
