<svg id="qr-code-scan" xmlns="http://www.w3.org/2000/svg" width="17" height="17" viewBox="0 0 17 17">
  <path id="Path_822" data-name="Path 822" d="M0,.531A.531.531,0,0,1,.531,0H3.719a.531.531,0,0,1,0,1.063H1.063V3.719A.531.531,0,1,1,0,3.719Zm12.75,0A.531.531,0,0,1,13.281,0h3.188A.531.531,0,0,1,17,.531V3.719a.531.531,0,0,1-1.062,0V1.063H13.281A.531.531,0,0,1,12.75.531ZM.531,12.75a.531.531,0,0,1,.531.531v2.656H3.719a.531.531,0,0,1,0,1.063H.531A.531.531,0,0,1,0,16.469V13.281a.531.531,0,0,1,.531-.531Zm15.938,0a.531.531,0,0,1,.531.531v3.188a.531.531,0,0,1-.531.531H13.281a.531.531,0,0,1,0-1.062h2.656V13.281A.531.531,0,0,1,16.469,12.75ZM4.25,4.25H5.313V5.313H4.25Z" fill="#fff"/>
  <path id="Path_823" data-name="Path 823" d="M7.478,2H2V7.478H7.478ZM3.1,3.1H6.383V6.383H3.1Zm2.191,8.765h-1.1v1.1h1.1Z" transform="translate(0.191 0.191)" fill="#fff"/>
  <path id="Path_824" data-name="Path 824" d="M7.478,9.478H2v5.478H7.478ZM3.1,10.574H6.383v3.287H3.1ZM11.861,4h1.1V5.1h-1.1Z" transform="translate(0.191 -0.148)" fill="#fff"/>
  <path id="Path_825" data-name="Path 825" d="M9.1,2h5.478V7.257H9.1Zm1.1,1.051V6.206h3.287V3.051ZM8,8.309v2.1H9.1v1.051H8v1.051h2.191v-2.1h1.1v2.1h1.1V11.463h2.191V10.412H11.287v-2.1Zm2.191,2.1H9.1V9.36h1.1Zm4.383,2.1h-1.1v1.051H11.287v1.051h3.287Zm-4.383,2.1V13.566H8v1.051Z" transform="translate(0.235 0.191)" fill="#fff"/>
  <path id="Path_826" data-name="Path 826" d="M12,9.1h2.191V8H12Z" transform="translate(0.617 0.482)" fill="#fff"/>
</svg>
