<svg id="Group_426" data-name="Group 426" xmlns="http://www.w3.org/2000/svg" width="11.263" height="12.194" viewBox="0 0 11.263 12.194">
  <path id="Path_770" data-name="Path 770" d="M149.853,56.518h-.027a4.223,4.223,0,0,0-8.393,0h-.027A1.408,1.408,0,0,0,140,57.926V59.8a1.408,1.408,0,0,0,1.408,1.408h.235a.235.235,0,0,0,.235-.235V56.987a3.754,3.754,0,0,1,7.508,0v3.989a3.138,3.138,0,0,1-2.362,2.5,1.028,1.028,0,0,0-1.012-.861h-.76a1.029,1.029,0,0,0-1.028,1.028v.291a1.029,1.029,0,0,0,1.028,1.028h.76a1.029,1.029,0,0,0,1.028-1,3.743,3.743,0,0,0,2.8-2.755h.016a1.408,1.408,0,0,0,1.408-1.408V57.926a1.408,1.408,0,0,0-1.408-1.408ZM140.468,59.8V57.926a.938.938,0,0,1,.939-.939v3.754a.938.938,0,0,1-.939-.939Zm6.1,4.134a.56.56,0,0,1-.558.558h-.76a.56.56,0,0,1-.558-.558v-.291a.56.56,0,0,1,.558-.558h.76a.56.56,0,0,1,.558.558Zm4.223-4.134a.938.938,0,0,1-.939.939V56.987a.938.938,0,0,1,.939.939Z" transform="translate(-139.998 -52.771)" fill="#d8d9d8"/>
  <path id="Path_771" data-name="Path 771" d="M227.735,196.88a.235.235,0,0,0-.235.235v4.106a.235.235,0,1,0,.469,0v-4.106a.235.235,0,0,0-.235-.235Z" transform="translate(-225.154 -193.015)" fill="#d8d9d8"/>
  <path id="Path_772" data-name="Path 772" d="M455.469,201.221v-4.106a.235.235,0,1,0-.469,0v4.106a.235.235,0,1,0,.469,0Z" transform="translate(-446.553 -193.015)" fill="#d8d9d8"/>
</svg>
