<svg id="g12" xmlns="http://www.w3.org/2000/svg" width="42.667" height="42.667" viewBox="0 0 42.667 42.667">
  <path id="path14" d="M44-60.231A21.334,21.334,0,0,1,65.334-38.9,21.334,21.334,0,0,1,44-17.563,21.334,21.334,0,0,1,22.667-38.9,21.334,21.334,0,0,1,44-60.231" transform="translate(-22.667 60.231)" fill="#ee2736" fill-rule="evenodd"/>
  <path id="path16" d="M34.36-44.936c.163-2.269,4.585-2.717,5.117,0v8.491c0,10.875-17.371,6.081-10.328.5,1.648,2.281,4.811,2.129,5.148-.122Zm19.7,1.708a6.706,6.706,0,0,1,6.8,6.613A6.706,6.706,0,0,1,54.059-30a6.708,6.708,0,0,1-6.8-6.613A6.708,6.708,0,0,1,54.059-43.228Zm0,3.8a2.742,2.742,0,0,1,2.666,2.811A2.74,2.74,0,0,1,54.059-33.8a2.74,2.74,0,0,1-2.665-2.811A2.742,2.742,0,0,1,54.059-39.426ZM42.982-48.751h.96a2.018,2.018,0,0,1,2.013,2.009v.495a2.019,2.019,0,0,1-2.013,2.009h-.96a2.018,2.018,0,0,1-2.016-2.009v-.495A2.019,2.019,0,0,1,42.982-48.751Zm.035,5.826h.889a2.054,2.054,0,0,1,2.05,2.043v8.566a2.055,2.055,0,0,1-2.05,2.046h-.889a2.055,2.055,0,0,1-2.05-2.046v-8.566a2.054,2.054,0,0,1,2.05-2.043" transform="translate(-23.203 58.981)" fill="#fff" fill-rule="evenodd"/>
</svg>
