<svg xmlns="http://www.w3.org/2000/svg" xmlns:xlink="http://www.w3.org/1999/xlink" width="50.325" height="46.36" viewBox="0 0 50.325 46.36">
  <defs>
    <linearGradient id="linear-gradient" x1="0.5" x2="0.5" y2="1" gradientUnits="objectBoundingBox">
      <stop offset="0" stop-color="#fff"/>
      <stop offset="1" stop-color="#fff" stop-opacity="0"/>
    </linearGradient>
  </defs>
  <g id="Group_530" data-name="Group 530" transform="translate(-8532.873 -434.04)">
    <g id="Light" transform="translate(8532.873 434.04)">
      <rect id="Rectangle_1606" data-name="Rectangle 1606" width="35" height="2" rx="1" transform="translate(6.663)" fill="#fff"/>
      <path id="Path_1078" data-name="Path 1078" d="M45.638,47,38.044,91.36H88.369L79,47Z" transform="translate(-38.044 -45)" opacity="0.5" fill="url(#linear-gradient)"/>
    </g>
    <path id="Path_1126" data-name="Path 1126" d="M101.8,87.313a.643.643,0,0,0-.638.638l0-.049s-.057.323-.132.775H86.315a.275.275,0,0,0-.274.274v11.685a.274.274,0,0,0,.274.274h4.4l-.7.938a.274.274,0,1,0,.439.329l.949-1.267h8.4l.949,1.267a.275.275,0,1,0,.439-.329l-.7-.938h4.4a.274.274,0,0,0,.274-.274V99.4h.658a.642.642,0,0,0,.638-.638l0,.049a41.759,41.759,0,0,0,.657-5.449,41.975,41.975,0,0,0-.657-5.46l0,.016a.669.669,0,0,0-.636-.605H101.8Zm0,.549h4.026c.053,0,.08.028.091.122,0,.005,0,.011,0,.016a43.591,43.591,0,0,1,.648,5.362,43.39,43.39,0,0,1-.648,5.35.265.265,0,0,0,0,.049.083.083,0,0,1-.089.089H101.8c-.053,0-.08-.028-.091-.122h0c0-.006,0-.011,0-.016a43.4,43.4,0,0,1-.648-5.35A43.626,43.626,0,0,1,101.707,88a.261.261,0,0,0,0-.049.084.084,0,0,1,.09-.09Zm1,.674h0a.6.6,0,1,0,.423.175.6.6,0,0,0-.423-.175Zm2.028,0h0a.6.6,0,1,0,.423.175.6.6,0,0,0-.423-.175Zm-18.239.69h14.36a30.9,30.9,0,0,0-.439,4.137,41.477,41.477,0,0,0,.655,5.433.669.669,0,0,0,.636.6h2.819v.962H86.59Zm16.211,1.29h0a.6.6,0,1,0,.423.175.6.6,0,0,0-.423-.175Zm2.028,0h0a.6.6,0,1,0,.423.175.6.6,0,0,0-.423-.175Zm-1.334,2.572a.139.139,0,0,0-.139.139v.766h-.767a.139.139,0,0,0-.139.139v.64a.139.139,0,0,0,.139.139h.767v.767a.139.139,0,0,0,.139.139h.64a.139.139,0,0,0,.139-.139V94.91h.767a.139.139,0,0,0,.139-.139v-.64a.139.139,0,0,0-.139-.139h-.767v-.766a.139.139,0,0,0-.139-.139Zm-.906,4.364a.139.139,0,0,0-.139.139v.254a.139.139,0,0,0,.139.139h2.452a.139.139,0,0,0,.139-.139V97.59a.139.139,0,0,0-.139-.139Z" transform="translate(8460.959 370.688)" fill="#fff" opacity="0.5"/>
  </g>
</svg>
