<svg id="cash" xmlns="http://www.w3.org/2000/svg" width="15.034" height="9.457" viewBox="0 0 15.034 9.457">
  <path id="Path_790" data-name="Path 790" d="M104.429,118.28a23.677,23.677,0,0,0-12.919,0v6.445a23.678,23.678,0,0,1,12.919,0q0-3.223,0-6.445Zm-.592,5.663a24.379,24.379,0,0,0-10.691-.27.782.782,0,0,0-1.044-.787v-4.18a24.384,24.384,0,0,1,10.691-.27,1.47,1.47,0,0,0,1.044,1.327c0,1.672,0,2.508,0,4.18Z" transform="translate(-91.51 -117.382)" fill="#959595"/>
  <path id="Path_791" data-name="Path 791" d="M253.043,163.037a1.874,1.874,0,0,1-3.742,0,1.872,1.872,0,1,1,3.742,0Z" transform="translate(-244.713 -159.833)" fill="#959595"/>
  <path id="Path_792" data-name="Path 792" d="M140.755,178.2c-.253-.068-.5-.131-.755-.192q0,2.941,0,5.882a23.573,23.573,0,0,0-12.165-.192v.947a23.677,23.677,0,0,1,12.919,0q0-3.223,0-6.445Z" transform="translate(-126.779 -176.249)" fill="#959595"/>
  <path id="Path_793" data-name="Path 793" d="M177.115,214.554c-.253-.068-.5-.131-.755-.192q0,2.941,0,5.882a23.576,23.576,0,0,0-12.165-.192V221a23.678,23.678,0,0,1,12.919,0q0-3.222,0-6.445Z" transform="translate(-162.081 -211.542)" fill="#959595"/>
</svg>
