<svg xmlns="http://www.w3.org/2000/svg" xmlns:xlink="http://www.w3.org/1999/xlink" width="50.325" height="46.36" viewBox="0 0 50.325 46.36">
  <defs>
    <linearGradient id="linear-gradient" x1="0.5" x2="0.5" y2="1" gradientUnits="objectBoundingBox">
      <stop offset="0" stop-color="#fff"/>
      <stop offset="1" stop-color="#fff" stop-opacity="0"/>
    </linearGradient>
  </defs>
  <g id="Group_520" data-name="Group 520" transform="translate(-8532.873 -336.04)">
    <g id="Light" transform="translate(8532.873 336.04)">
      <rect id="Rectangle_1606" data-name="Rectangle 1606" width="35" height="2" rx="1" transform="translate(6.663)" fill="#fff"/>
      <path id="Path_1078" data-name="Path 1078" d="M45.638,47,38.044,91.36H88.369L79,47Z" transform="translate(-38.044 -45)" opacity="0.5" fill="url(#linear-gradient)"/>
    </g>
    <path id="student-loan" d="M15.465,11.874l-.154-.706c.661.123,1.722,1.469,2.065,2.081a5.817,5.817,0,0,1,.453,1.041c.25.931.009,1.8-1,2a12.588,12.588,0,0,1-2.478.1c-.716-.036-1.823-.036-2.112-.77-.466-1.185.389-2.6,1.168-3.462a4.4,4.4,0,0,1,.319-.318,3.045,3.045,0,0,1,.955-.668l-.353.656.512-.679h.27l.357.72Zm-.331.467v.2a1.167,1.167,0,0,1,.335.081.716.716,0,0,1,.416.555.215.215,0,0,1-.067.158.222.222,0,0,1-.162.067.228.228,0,0,1-.232-.194.414.414,0,0,0-.29-.3v.759c.151.041.272.079.361.113a.738.738,0,0,1,.24.148.71.71,0,0,1,.236.546.8.8,0,0,1-.1.389.886.886,0,0,1-.739.433v.455a.423.423,0,0,1-.021.157.088.088,0,0,1-.092.049.1.1,0,0,1-.092-.04.233.233,0,0,1-.026-.125v-.493a1.152,1.152,0,0,1-.373-.1.785.785,0,0,1-.475-.67.237.237,0,0,1,.456-.082c.077.238.134.4.392.475v-.849a2.244,2.244,0,0,1-.409-.151.688.688,0,0,1-.267-.236.782.782,0,0,1,.1-.909.9.9,0,0,1,.578-.233v-.194q0-.153.115-.153c.078,0,.117.05.117.149ZM14.9,13.593v-.7a.639.639,0,0,0-.239.12.338.338,0,0,0-.006.445A.733.733,0,0,0,14.9,13.593Zm.232.542v.8a.426.426,0,0,0,.385-.407C15.52,14.288,15.337,14.2,15.135,14.135Zm-.67-3.977c-.117-.344-.222-.692-.31-1.046a2.063,2.063,0,0,1,1.975-.006l-.34.809c.183-.24.244-.339.354-.473a1.018,1.018,0,0,1,.13.1.531.531,0,0,1,.2.319.333.333,0,0,1-.091.267l-.781.909a1.716,1.716,0,0,1-.293-.075c.044-.1.1-.219.142-.323l-.284.307a1.065,1.065,0,0,0-.756.092l-.791-.95a.263.263,0,0,1-.068-.17c0-.23.343-.428.522-.5l.392.74ZM4.981,4.321l.027-.985,2.818.814a3.565,3.565,0,0,0,1.527,0l2.691-.823V4.459a4.154,4.154,0,0,1-.226,1.818.387.387,0,0,1,.068.041.556.556,0,0,1,.173.244,1.5,1.5,0,0,1,.063.692v0a1.623,1.623,0,0,1-.228.693.694.694,0,0,1-.438.323,4.389,4.389,0,0,1-.977,1.844c.118.173.247.362.375.535a5.52,5.52,0,0,0,2.132.81c-.036.036-.076.078-.119.126l-.046.047a6.393,6.393,0,0,0-1.3,2.133,3.09,3.09,0,0,0-.02,2.126H.892c-.738-.056-1-.5-.859-1.171a4.182,4.182,0,0,1,.733-1.929,2.528,2.528,0,0,1,.8-.678c.907-.506,3.256-.675,4.256-1.351.156-.2.318-.439.462-.651.028-.041-.167-.223-.2-.266a5.982,5.982,0,0,1-.732-1.132,2.323,2.323,0,0,1-.1-.43v-.02a.7.7,0,0,1-.405-.315,1.813,1.813,0,0,1-.235-1.073,1.117,1.117,0,0,1,.069-.314A.537.537,0,0,1,4.87,6.3a.4.4,0,0,1,.3-.055l.012,0a1.365,1.365,0,0,1-.12-.31,4.737,4.737,0,0,1-.082-1.621Zm6.076,1.54a10.4,10.4,0,0,1-2.476.422,10.651,10.651,0,0,1-2.906-.475V6.884a6.139,6.139,0,0,0,.113,1.823,4.66,4.66,0,0,0,.685,1,3.392,3.392,0,0,0,.836.7,2.123,2.123,0,0,0,2.414-.145A3.755,3.755,0,0,0,10.994,8.4a3.75,3.75,0,0,0,.062-.855V5.86ZM10.1,10.478a3.273,3.273,0,0,1-.328.243,2.389,2.389,0,0,1-2.539.126,3.332,3.332,0,0,1-.594-.416c-.186.231-.384.5-.55.711.852,1.993,4.178,2.033,4.656.11-.2-.238-.443-.509-.645-.774Zm1.376-3.6v.958a.982.982,0,0,0,.248-.623,1.194,1.194,0,0,0-.037-.5c-.037-.093-.077-.091-.135-.011A.513.513,0,0,0,11.479,6.877Zm-6.226.958V6.877a.516.516,0,0,0-.076-.18c-.058-.08-.1-.082-.135.011A.761.761,0,0,0,5,6.923a1.579,1.579,0,0,0,.006.289A.985.985,0,0,0,5.254,7.835ZM3.819,2.1V4.2H3.753a.082.082,0,0,0-.082.082v.563a.082.082,0,0,0,.082.082h.066v.2a.182.182,0,0,0,.034.36h.325a.182.182,0,0,0,.034-.36v-.2h.066a.082.082,0,0,0,.082-.082V4.278A.082.082,0,0,0,4.277,4.2H4.211V2.223L7.64,3.289a3.849,3.849,0,0,0,1.863,0l3.785-1.13.342-.1c.426-.174.32-.584-.077-.678L9.272.1A2.206,2.206,0,0,0,7.948.1l-4.2,1.263c-.456.111-.547.535-.015.709l.09.028Z" transform="translate(8549.503 358.5)" fill="none" stroke="#fff" stroke-width="0.25" fill-rule="evenodd" opacity="0.5"/>
  </g>
</svg>
