<svg xmlns="http://www.w3.org/2000/svg" xmlns:xlink="http://www.w3.org/1999/xlink" width="50.325" height="46.36" viewBox="0 0 50.325 46.36">
  <defs>
    <linearGradient id="linear-gradient" x1="0.5" x2="0.5" y2="1" gradientUnits="objectBoundingBox">
      <stop offset="0" stop-color="#fff"/>
      <stop offset="1" stop-color="#fff" stop-opacity="0"/>
    </linearGradient>
  </defs>
  <g id="Group_526" data-name="Group 526" transform="translate(-8532.873 -37.04)">
    <g id="Light" transform="translate(8532.873 37.04)">
      <rect id="Rectangle_1606" data-name="Rectangle 1606" width="35" height="2" rx="1" transform="translate(6.663)" fill="#fff"/>
      <path id="Path_1078" data-name="Path 1078" d="M45.638,47,38.044,91.36H88.369L79,47Z" transform="translate(-38.044 -45)" opacity="0.5" fill="url(#linear-gradient)"/>
    </g>
    <path id="mobile-recharge" d="M108.606,20.676a.965.965,0,1,0-.965-.965.965.965,0,0,0,.965.965Zm0-1.287a.322.322,0,1,1-.322.322.322.322,0,0,1,.322-.322ZM113.6,0h-9.995A1.61,1.61,0,0,0,102,1.609V20.354a1.61,1.61,0,0,0,1.609,1.609H113.6a1.61,1.61,0,0,0,1.609-1.609V1.609A1.61,1.61,0,0,0,113.6,0Zm.965,20.354a.966.966,0,0,1-.965.965h-9.995a.966.966,0,0,1-.965-.965V18.1h11.925Zm0-2.9H102.643V3.217h11.925Zm0-14.885H102.643V1.609a.966.966,0,0,1,.965-.965H113.6a.966.966,0,0,1,.965.965Zm-5.111-1.287h-1.7a.322.322,0,1,0,0,.643h1.7a.322.322,0,1,0,0-.643Zm-3.508,8.864h0l1.557,1.359-1.387,3.252a.579.579,0,0,0,.911.666l4.231-3.65a.579.579,0,0,0,.034-.845l-1.738-1.761,1.248-3.141a.579.579,0,0,0-.946-.625l-3.938,3.9a.579.579,0,0,0,.027.848Zm4.145-4.072-1.15,2.894a.579.579,0,0,0,.126.621l1.719,1.742-3.969,3.424,1.3-3.04a.578.578,0,0,0-.152-.664l-1.541-1.344Z" transform="translate(8449 59.097)" fill="#f7f7f7" opacity="0.5"/>
  </g>
</svg>
