<svg xmlns="http://www.w3.org/2000/svg" width="18.875" height="16.602" viewBox="0 0 18.875 16.602">
  <path id="Path_1170" data-name="Path 1170" d="M98.529,60.694a15.532,15.532,0,0,1,3.813-4.624c.406-.437,2.359,1.312,2.359,1.312s3.2-.532,3.975-.532,1.579.95,2.3,1.471,1.544.684,1.621,1.118-.925.936-1.523.936a4.141,4.141,0,0,1-2.19-.554,5.768,5.768,0,0,0-1.149-.608c-.814.558-5.328,3.249-5.8,3.408a4.362,4.362,0,0,1-3.409-1.928ZM98,65.278s9.918-5.61,9.993-5.678a4.7,4.7,0,0,0,3.6,1.091c.388-.087,1.4-.947,1.223-1.468s-1.81-1.266-1.81-1.266l1.738-1.042,4.133,7.3L102.185,72.6ZM108.125,67.3l.365.607.62-.373-.365-.607a2.091,2.091,0,0,0,.809-1.037,1.544,1.544,0,0,0-.255-1.233,1.631,1.631,0,0,0-.573-.61,1.532,1.532,0,0,0-.636-.2,2.285,2.285,0,0,0-.644.043q-.318.067-.606.107a1.616,1.616,0,0,1-.521,0,.549.549,0,0,1-.375-.28.561.561,0,0,1-.078-.343.4.4,0,0,1,.218-.31.339.339,0,0,1,.361-.01.812.812,0,0,1,.3.3l.061.1,1.174-.705a1.772,1.772,0,0,0-.926-.853,1.7,1.7,0,0,0-1.223.18l-.235-.391-.621.373.235.391a1.552,1.552,0,0,0-.355,2.205,1.574,1.574,0,0,0,.546.581,1.494,1.494,0,0,0,.613.2,2.407,2.407,0,0,0,.63-.029q.315-.056.593-.09a1.537,1.537,0,0,1,.5.014.609.609,0,0,1,.446.65.426.426,0,0,1-.223.309.478.478,0,0,1-.372.068.687.687,0,0,1-.366-.349l-.077-.128-1.214.729.109.182a1.387,1.387,0,0,0,.892.736,1.985,1.985,0,0,0,1.188-.223Z" transform="translate(-98.003 -56)" fill="#959595" fill-rule="evenodd"/>
</svg>
