<svg id="Group_326" data-name="Group 326" xmlns="http://www.w3.org/2000/svg" xmlns:xlink="http://www.w3.org/1999/xlink" width="22.135" height="23.611" viewBox="0 0 22.135 23.611">
  <defs>
    <linearGradient id="linear-gradient" x1="0.5" x2="0.5" y2="1" gradientUnits="objectBoundingBox">
      <stop offset="0" stop-color="#56ccf2"/>
      <stop offset="1" stop-color="#2f80ed"/>
    </linearGradient>
  </defs>
  <path id="Path_1042" data-name="Path 1042" d="M169.587,239.334a.794.794,0,1,1-.794-.794.794.794,0,0,1,.794.794" transform="translate(-167.445 -228.797)" fill="url(#linear-gradient)"/>
  <path id="Path_1043" data-name="Path 1043" d="M166.151,237.643a.952.952,0,1,1,.952-.952A.954.954,0,0,1,166.151,237.643Zm0-1.587a.635.635,0,1,0,.635.635A.635.635,0,0,0,166.151,236.056Z" transform="translate(-164.803 -226.154)" fill="url(#linear-gradient)"/>
  <path id="Path_1044" data-name="Path 1044" d="M281.587,295.334a.794.794,0,1,1-.794-.794.794.794,0,0,1,.794.794" transform="translate(-273.096 -281.623)" fill="url(#linear-gradient)"/>
  <path id="Path_1045" data-name="Path 1045" d="M278.151,293.643a.952.952,0,1,1,.952-.952A.954.954,0,0,1,278.151,293.643Zm0-1.587a.635.635,0,1,0,.635.635A.635.635,0,0,0,278.151,292.056Z" transform="translate(-270.454 -278.98)" fill="url(#linear-gradient)"/>
  <path id="Path_1046" data-name="Path 1046" d="M393.587,183.854a.794.794,0,1,1-.794-.794.794.794,0,0,1,.794.794" transform="translate(-378.748 -176.462)" fill="url(#linear-gradient)"/>
  <path id="Path_1047" data-name="Path 1047" d="M390.151,182.163a.952.952,0,1,1,.952-.952A.954.954,0,0,1,390.151,182.163Zm0-1.587a.635.635,0,1,0,.635.635A.635.635,0,0,0,390.151,180.576Z" transform="translate(-376.105 -173.819)" fill="url(#linear-gradient)"/>
  <path id="Path_1048" data-name="Path 1048" d="M505.587,70.255a.794.794,0,1,1-.794-.794.794.794,0,0,1,.794.794" transform="translate(-484.4 -69.302)" fill="url(#linear-gradient)"/>
  <path id="Path_1049" data-name="Path 1049" d="M502.151,68.563a.952.952,0,1,1,.952-.952A.954.954,0,0,1,502.151,68.563Zm0-1.587a.635.635,0,1,0,.635.635A.636.636,0,0,0,502.151,66.976Z" transform="translate(-481.757 -66.658)" fill="url(#linear-gradient)"/>
  <path id="Path_1050" data-name="Path 1050" d="M194.9,257.98l4.84,2.384-.14.285-4.84-2.384Z" transform="translate(-192.691 -247.135)" fill="url(#linear-gradient)"/>
  <path id="Path_1051" data-name="Path 1051" d="M307.228,203.57l.228.221-5.148,5.292-.228-.221Z" transform="translate(-293.925 -195.809)" fill="url(#linear-gradient)"/>
  <path id="Path_1052" data-name="Path 1052" d="M417.049,90.773l.227.222-5.319,5.446-.227-.222Z" transform="translate(-397.359 -89.406)" fill="url(#linear-gradient)"/>
  <rect id="Rectangle_1585" data-name="Rectangle 1585" width="2.951" height="19.183" rx="1" transform="translate(19.183 4.427)" fill="url(#linear-gradient)"/>
  <rect id="Rectangle_1586" data-name="Rectangle 1586" width="2.951" height="12.543" rx="1" transform="translate(12.543 11.068)" fill="url(#linear-gradient)"/>
  <rect id="Rectangle_1587" data-name="Rectangle 1587" width="2.951" height="6.64" rx="1" transform="translate(6.64 16.97)" fill="url(#linear-gradient)"/>
  <rect id="Rectangle_1588" data-name="Rectangle 1588" width="2.951" height="9.592" rx="1" transform="translate(0 14.019)" fill="url(#linear-gradient)"/>
</svg>
