<svg xmlns="http://www.w3.org/2000/svg" xmlns:xlink="http://www.w3.org/1999/xlink" width="62" height="62" viewBox="0 0 62 62">
  <defs>
    <linearGradient id="linear-gradient" x1="0.5" x2="0.5" y2="1" gradientUnits="objectBoundingBox">
      <stop offset="0" stop-color="#fff"/>
      <stop offset="1" stop-color="#fff" stop-opacity="0"/>
    </linearGradient>
  </defs>
  <g id="Group_581" data-name="Group 581" transform="translate(-15 -27)">
    <g id="Light" transform="translate(20.837 27.04)">
      <rect id="Rectangle_1606" data-name="Rectangle 1606" width="35" height="2" rx="1" transform="translate(6.663)" fill="#fff"/>
      <path id="Path_1078" data-name="Path 1078" d="M45.638,47,38.044,91.36H88.369L79,47Z" transform="translate(-38.044 -45)" opacity="0.5" fill="url(#linear-gradient)"/>
    </g>
    <g id="Group_20" data-name="Group 20" transform="translate(15 27)">
      <g id="Rectangle_261" data-name="Rectangle 261" fill="none" stroke="#fff" stroke-width="1" opacity="0.5">
        <rect width="62" height="62" stroke="none"/>
        <rect x="0.5" y="0.5" width="61" height="61" fill="none"/>
      </g>
      <path id="passcode" d="M1.831,16.85H23.872A1.839,1.839,0,0,1,25.7,18.681v7.28a1.84,1.84,0,0,1-1.831,1.831H1.831A1.839,1.839,0,0,1,0,25.961v-7.28A1.837,1.837,0,0,1,1.831,16.85ZM7.454,5.79h.6V4.976a5.054,5.054,0,0,1,1.4-3.5,4.66,4.66,0,0,1,6.8,0,5.05,5.05,0,0,1,1.4,3.5V5.79h.6a.786.786,0,0,1,.784.784v7.746a.786.786,0,0,1-.784.783H7.454a.785.785,0,0,1-.783-.783V6.574A.785.785,0,0,1,7.454,5.79ZM12.231,10.8l-.816,2.136h2.872l-.755-2.166a1.487,1.487,0,1,0-1.3.03ZM9.533,5.79H16.17V4.976A3.574,3.574,0,0,0,15.185,2.5a3.191,3.191,0,0,0-4.668,0,3.572,3.572,0,0,0-.984,2.478Zm9.729,14.622a.6.6,0,1,1,1.208,0v.781l.648-.433a.6.6,0,0,1,.67,1l-.836.559.837.556a.6.6,0,0,1-.665,1l-.653-.434v.784a.6.6,0,1,1-1.208,0v-.781l-.647.433a.6.6,0,0,1-.67-1l.836-.559-.836-.556a.6.6,0,0,1,.665-1.005l.653.434v-.784Zm-14.029,0a.6.6,0,1,1,1.208,0v.781l.647-.433a.6.6,0,1,1,.67,1l-.836.559.837.556a.6.6,0,0,1-.666,1l-.653-.434v.784a.6.6,0,1,1-1.208,0v-.781l-.648.433a.6.6,0,0,1-.67-1l.836-.559-.837-.556a.6.6,0,0,1,.665-1.005l.653.434Zm7.014,0a.6.6,0,1,1,1.208,0v.781l.647-.433a.6.6,0,1,1,.67,1l-.836.559.836.556a.6.6,0,0,1-.665,1l-.653-.434v.784a.6.6,0,1,1-1.208,0v-.781l-.647.433a.6.6,0,0,1-.67-1l.836-.559-.837-.556a.6.6,0,0,1,.665-1.005l.653.434v-.784Z" transform="translate(18 17)" fill="#fff" fill-rule="evenodd" opacity="0.5"/>
    </g>
  </g>
</svg>
