<svg xmlns="http://www.w3.org/2000/svg" xmlns:xlink="http://www.w3.org/1999/xlink" width="62" height="62" viewBox="0 0 62 62">
  <defs>
    <linearGradient id="linear-gradient" x1="0.5" x2="0.5" y2="1" gradientUnits="objectBoundingBox">
      <stop offset="0" stop-color="#fff"/>
      <stop offset="1" stop-color="#fff" stop-opacity="0"/>
    </linearGradient>
  </defs>
  <g id="Group_587" data-name="Group 587" transform="translate(-15 -27)">
    <g id="Light" transform="translate(20.837 27.04)">
      <rect id="Rectangle_1606" data-name="Rectangle 1606" width="35" height="2" rx="1" transform="translate(6.663)" fill="#fff"/>
      <path id="Path_1078" data-name="Path 1078" d="M45.638,47,38.044,91.36H88.369L79,47Z" transform="translate(-38.044 -45)" opacity="0.5" fill="url(#linear-gradient)"/>
    </g>
    <g id="Group_20" data-name="Group 20" transform="translate(15 27)">
      <g id="Rectangle_261" data-name="Rectangle 261" fill="none" stroke="#fff" stroke-width="1" opacity="0.5">
        <rect width="62" height="62" stroke="none"/>
        <rect x="0.5" y="0.5" width="61" height="61" fill="none"/>
      </g>
      <path id="noun-toggle-off-4247822" d="M157.1,175a5.429,5.429,0,1,0,0,10.857h9.65a5.429,5.429,0,1,0,0-10.857Zm0,9.048a3.619,3.619,0,1,0-3.619-3.619A3.619,3.619,0,0,0,157.1,184.048Z" transform="translate(-130.569 -149)" fill="#fff" fill-rule="evenodd" opacity="0.5"/>
    </g>
  </g>
</svg>
