<svg xmlns="http://www.w3.org/2000/svg" xmlns:xlink="http://www.w3.org/1999/xlink" width="38" height="37" viewBox="0 0 38 37">
  <defs>
    <linearGradient id="linear-gradient" x1="0.5" x2="0.5" y2="1" gradientUnits="objectBoundingBox">
      <stop offset="0" stop-color="#fff"/>
      <stop offset="1" stop-color="#fff" stop-opacity="0"/>
    </linearGradient>
  </defs>
  <g id="Group_594" data-name="Group 594" transform="translate(-8534 -336)">
    <g id="Group_433" data-name="Group 433" transform="translate(8527 336)">
      <g id="Rectangle_261" data-name="Rectangle 261" transform="translate(7)" fill="none" stroke="#fff" stroke-width="1" opacity="0.5">
        <rect width="38" height="37" stroke="none"/>
        <rect x="0.5" y="0.5" width="37" height="36" fill="none"/>
      </g>
    </g>
    <g id="Group_520" data-name="Group 520" transform="translate(0.325)">
      <g id="Light" transform="translate(8533.488 336)">
        <rect id="Rectangle_1606" data-name="Rectangle 1606" width="23" height="1" rx="0.5" transform="translate(7.194)" fill="#fff"/>
        <path id="Path_1078" data-name="Path 1078" d="M42.872,47,38.044,75h32L64.085,47Z" transform="translate(-34.857 -46.846)" opacity="0.5" fill="url(#linear-gradient)"/>
      </g>
      <path id="Path_1193" data-name="Path 1193" d="M158.169,17.219a1.9,1.9,0,1,1-1.343.556A1.893,1.893,0,0,1,158.169,17.219Zm-1.776,4.272a5.317,5.317,0,0,1,1.776,2.35,5.313,5.313,0,0,1,1.776-2.35l.009-.007a2.964,2.964,0,1,0-3.57,0l.009.007Zm3.82.346a4.493,4.493,0,0,0-1.826,2.889.218.218,0,0,1-.435,0,4.483,4.483,0,0,0-1.826-2.892l0,0a3.4,3.4,0,1,1,4.1,0ZM159.2,18.085a1.461,1.461,0,1,0,.428,1.033A1.456,1.456,0,0,0,159.2,18.085Z" transform="translate(8393.907 329.284)" fill="#fff" opacity="0.5"/>
    </g>
  </g>
</svg>
