<svg xmlns="http://www.w3.org/2000/svg" width="12.852" height="12.88" viewBox="0 0 12.852 12.88">
  <path id="scan" d="M2.451,0H3.813V1.169H2.451a1.281,1.281,0,0,0-.906.374h0a1.281,1.281,0,0,0-.374.906V4.121H0V2.451A2.444,2.444,0,0,1,.719.722h0A2.443,2.443,0,0,1,2.451,0ZM.341,5.756h12.17a.345.345,0,0,1,.341.343v.683a.345.345,0,0,1-.341.346H.341A.344.344,0,0,1,0,6.782V6.1a.343.343,0,0,1,.341-.343ZM9.493,0H10.4a2.44,2.44,0,0,1,1.728.719h0a2.444,2.444,0,0,1,.72,1.732V4.121H11.683V2.451a1.279,1.279,0,0,0-.377-.9h0a1.28,1.28,0,0,0-.906-.375H9.493Zm3.354,8.579v1.85A2.459,2.459,0,0,1,10.4,12.88h-.9V11.711H10.4a1.288,1.288,0,0,0,1.282-1.282V8.579Zm-9.038,4.3H2.446a2.444,2.444,0,0,1-1.727-.718l-.034-.037A2.44,2.44,0,0,1,0,10.429V8.579H1.169v1.85a1.284,1.284,0,0,0,.351.882l.026.023a1.279,1.279,0,0,0,.9.377H3.813V12.88Z" transform="translate(0)" fill="#959595"/>
</svg>
