<svg xmlns="http://www.w3.org/2000/svg" xmlns:xlink="http://www.w3.org/1999/xlink" width="62" height="62" viewBox="0 0 62 62">
  <defs>
    <linearGradient id="linear-gradient" x1="0.5" x2="0.5" y2="1" gradientUnits="objectBoundingBox">
      <stop offset="0" stop-color="#fff"/>
      <stop offset="1" stop-color="#fff" stop-opacity="0"/>
    </linearGradient>
  </defs>
  <g id="Group_582" data-name="Group 582" transform="translate(-15 -27)">
    <g id="Light" transform="translate(20.837 27.04)">
      <rect id="Rectangle_1606" data-name="Rectangle 1606" width="35" height="2" rx="1" transform="translate(6.663)" fill="#fff"/>
      <path id="Path_1078" data-name="Path 1078" d="M45.638,47,38.044,91.36H88.369L79,47Z" transform="translate(-38.044 -45)" opacity="0.5" fill="url(#linear-gradient)"/>
    </g>
    <g id="Group_20" data-name="Group 20" transform="translate(15 27)">
      <g id="Rectangle_261" data-name="Rectangle 261" fill="none" stroke="#fff" stroke-width="1" opacity="0.5">
        <rect width="62" height="62" stroke="none"/>
        <rect x="0.5" y="0.5" width="61" height="61" fill="none"/>
      </g>
      <path id="Path_1191" data-name="Path 1191" d="M5.244,17.23a.386.386,0,1,1,.653.412l-.784,1.252a.386.386,0,1,1-.653-.412l.784-1.252ZM1.071,12.274a.387.387,0,1,1-.748.2c-.064-.244-.119-.491-.166-.74s-.081-.494-.108-.74c-.016-.16-.029-.323-.036-.487S0,10.162,0,10.012A10.025,10.025,0,0,1,17.1,2.919a9.919,9.919,0,0,1,2.928,7.056.388.388,0,1,1-.776,0,9.2,9.2,0,0,0-9.237-9.2A9.236,9.236,0,0,0,.776,10.012c0,.169,0,.321.01.456s.018.3.033.445c.024.228.057.455.1.68s.093.45.153.681Zm1.043,3.512a.387.387,0,1,1-.507-.585,1.334,1.334,0,0,0,.257-.3,1.781,1.781,0,0,0,.191-.424A5.317,5.317,0,0,0,2,11.918,9.681,9.681,0,0,1,1.788,10.1,8.158,8.158,0,0,1,6.419,2.969a8.79,8.79,0,0,1,3.525-.96,7.448,7.448,0,0,1,3.6.693c2.544,1.209,4.61,4.04,5.04,9.053a.388.388,0,1,1-.774.064C17.4,7.126,15.522,4.5,13.21,3.4a6.689,6.689,0,0,0-3.227-.621,8.023,8.023,0,0,0-3.212.877A7.386,7.386,0,0,0,2.56,10.1a9.251,9.251,0,0,0,.2,1.677,5.9,5.9,0,0,1,.034,2.925,2.581,2.581,0,0,1-.275.606,2.153,2.153,0,0,1-.406.474ZM17.8,13.365a.388.388,0,1,1,.776,0v1.626a.388.388,0,1,1-.776,0V13.365Zm-14.538,4a.387.387,0,1,1-.513-.579A3.456,3.456,0,0,0,3.781,15.13a6.492,6.492,0,0,0,.139-2.594,8.935,8.935,0,0,1-.134-3.046,5.967,5.967,0,0,1,.96-2.547.387.387,0,1,1,.639.437A5.2,5.2,0,0,0,4.552,9.6a8.178,8.178,0,0,0,.125,2.782.373.373,0,0,1,.011.059,7.237,7.237,0,0,1-.165,2.909,4.214,4.214,0,0,1-1.263,2.017ZM7.2,5.7a.388.388,0,1,1-.388-.671,6.577,6.577,0,0,1,5.4-.528,6.05,6.05,0,0,1,3.264,2.733,7.272,7.272,0,0,1,.662,1.54,13.337,13.337,0,0,1,.5,2.713,21.58,21.58,0,0,1,.015,3.225.221.221,0,0,1,0,.033l-.271,2.669a.387.387,0,0,1-.771-.077l.271-2.673v0a20.957,20.957,0,0,0-.015-3.113A12.488,12.488,0,0,0,15.4,9a6.518,6.518,0,0,0-.592-1.377A5.285,5.285,0,0,0,11.958,5.23a5.738,5.738,0,0,0-3.548-.059A5.943,5.943,0,0,0,7.2,5.7Zm-.852,10.3a.387.387,0,0,1-.763-.134,11.553,11.553,0,0,0,.158-1.677c.018-.621,0-1.3-.039-2.027-.008-.156-.023-.35-.036-.539A5.481,5.481,0,0,1,6.233,8.1a3.989,3.989,0,0,1,.579-.789,4.183,4.183,0,0,1,.789-.65.3.3,0,0,1,.06-.031,6.808,6.808,0,0,1,1.318-.484,4.558,4.558,0,0,1,1.341-.135.387.387,0,1,1-.039.772,3.838,3.838,0,0,0-1.12.114A6.033,6.033,0,0,0,8,7.322a3.345,3.345,0,0,0-.626.517,3.182,3.182,0,0,0-.466.637,4.881,4.881,0,0,0-.469,3.087c.011.163.023.332.036.551.042.74.057,1.441.039,2.091a12.622,12.622,0,0,1-.168,1.791Zm5.458-8.741a.387.387,0,0,1,.4-.66c.119.073.235.152.347.236s.22.174.329.274c1.476,1.341,1.977,3.5,2.009,5.753a27.612,27.612,0,0,1-.759,6.178.386.386,0,1,1-.755-.168,26.854,26.854,0,0,0,.741-6c-.029-2.063-.469-4.017-1.758-5.189-.09-.081-.183-.158-.275-.228a2.722,2.722,0,0,0-.282-.194ZM7.032,19.505a.387.387,0,1,1-.632-.447,6.391,6.391,0,0,0,.694-1.269,7.707,7.707,0,0,0,.437-1.511,15.076,15.076,0,0,0,.013-3.531c-.029-.412-.057-.815-.075-1.229a7.159,7.159,0,0,1,.075-1.737,2.258,2.258,0,0,1,.916-1.47,2.481,2.481,0,0,1,.386-.222,3.1,3.1,0,0,1,.45-.166,3.356,3.356,0,0,1,.355-.081,2.2,2.2,0,0,1,1.908.494A3.43,3.43,0,0,1,12.525,10a6.288,6.288,0,0,1,.142.627c.02.117.037.236.051.355s.024.238.033.362a25.386,25.386,0,0,1-.139,4.263,21.559,21.559,0,0,1-.774,3.96.387.387,0,0,1-.738-.233,20.82,20.82,0,0,0,.74-3.81,24.665,24.665,0,0,0,.135-4.13c-.007-.1-.016-.21-.029-.321s-.028-.209-.046-.311c-.033-.186-.073-.368-.122-.546a2.664,2.664,0,0,0-.73-1.3,1.463,1.463,0,0,0-1.266-.311,2.51,2.51,0,0,0-.274.064A2.185,2.185,0,0,0,9.17,8.8a1.775,1.775,0,0,0-.267.152,1.519,1.519,0,0,0-.6.992,6.605,6.605,0,0,0-.06,1.547c.016.367.046.784.075,1.211a15.57,15.57,0,0,1-.026,3.724,8.5,8.5,0,0,1-.482,1.662,7.141,7.141,0,0,1-.777,1.418Zm2.655-9.377a.387.387,0,1,1,.761-.139,17.893,17.893,0,0,1,.295,3.215,20.839,20.839,0,0,1-.251,3.233.387.387,0,0,1-.764-.119A19.9,19.9,0,0,0,9.97,13.2a17.126,17.126,0,0,0-.284-3.077Zm-.443,7.522a.386.386,0,1,1,.755.168l-.339,1.527a.386.386,0,1,1-.755-.168l.339-1.527Z" transform="translate(21 21)" fill="#fff" opacity="0.5"/>
    </g>
  </g>
</svg>
