<svg id="Group_591" data-name="Group 591" xmlns="http://www.w3.org/2000/svg" width="24" height="21" viewBox="0 0 24 21">
  <g id="Polygon_4" data-name="Polygon 4" fill="none">
    <path d="M13.638.938a2.5,2.5,0,0,1,3.2,1.034l.2.354a2.5,2.5,0,0,0,1.777,1.226l.427.068a2.5,2.5,0,0,1,2.077,2.855h0a2.5,2.5,0,0,0,.752,2.2l.007.006a2.5,2.5,0,0,1,0,3.631l-.007.006a2.5,2.5,0,0,0-.752,2.2h0a2.5,2.5,0,0,1-2.077,2.855l-.427.068a2.5,2.5,0,0,0-1.777,1.226l-.2.354a2.5,2.5,0,0,1-3.2,1.034l-.607-.275a2.5,2.5,0,0,0-2.062,0l-.607.275a2.5,2.5,0,0,1-3.2-1.034l-.2-.354a2.5,2.5,0,0,0-1.777-1.226l-.427-.068a2.5,2.5,0,0,1-2.077-2.855h0a2.5,2.5,0,0,0-.752-2.2l-.007-.006a2.5,2.5,0,0,1,0-3.631l.007-.006a2.5,2.5,0,0,0,.752-2.2h0A2.5,2.5,0,0,1,4.756,3.62l.427-.068A2.5,2.5,0,0,0,6.96,2.326l.2-.354a2.5,2.5,0,0,1,3.2-1.034l.607.275a2.5,2.5,0,0,0,2.062,0Z" stroke="none"/>
    <path d="M 9.332160949707031 1.714780807495117 C 8.795520782470703 1.714809417724609 8.29664134979248 2.003850936889648 8.030210494995117 2.469100952148438 L 7.827661514282227 2.822809219360352 C 7.29840087890625 3.74700927734375 6.391580581665039 4.372770309448242 5.339700698852539 4.539640426635742 L 4.912281036376953 4.607440948486328 C 4.097440719604492 4.736709594726562 3.538591384887695 5.504969596862793 3.666521072387695 6.320019721984863 C 3.845331192016602 7.459280014038086 3.451820373535156 8.612449645996094 2.613901138305664 9.404720306396484 L 2.607250213623047 9.411009788513184 C 2.304780960083008 9.696999549865723 2.138210296630859 10.083740234375 2.138210296630859 10.5 C 2.138210296630859 10.916259765625 2.304780960083008 11.30300045013428 2.607280731201172 11.58901977539062 L 2.613870620727539 11.59525012969971 C 3.451820373535156 12.38755035400391 3.845331192016602 13.54072952270508 3.666511535644531 14.67997932434082 C 3.538581848144531 15.49502944946289 4.097421646118164 16.26329040527344 4.912271499633789 16.39254951477051 L 5.339700698852539 16.46035957336426 C 6.391571044921875 16.62722015380859 7.298391342163086 17.25297927856445 7.827671051025391 18.17720985412598 L 8.030200958251953 18.53089904785156 C 8.296650886535645 18.99617958068848 8.795511245727539 19.28521919250488 9.332091331481934 19.28521919250488 C 9.545391082763672 19.28521919250488 9.753021240234375 19.24015045166016 9.949220657348633 19.15126037597656 L 10.55619049072266 18.87627029418945 C 11.01290130615234 18.66938018798828 11.49866104125977 18.5644702911377 12.00000095367432 18.5644702911377 C 12.50136089324951 18.5644702911377 12.98714065551758 18.66938018798828 13.44381141662598 18.87627983093262 L 14.05076122283936 19.15126037597656 C 14.24698066711426 19.24015045166016 14.45462131500244 19.28521919250488 14.6679105758667 19.28521919250488 C 15.20449066162109 19.28521919250488 15.70335102081299 18.99617958068848 15.96979141235352 18.53091049194336 L 16.17234039306641 18.17719078063965 C 16.70161056518555 17.25297927856445 17.60843086242676 16.62722015380859 18.66028213500977 16.46035957336426 L 19.08772087097168 16.39254951477051 C 19.9025707244873 16.26329040527344 20.46141052246094 15.49502944946289 20.33348083496094 14.67997932434082 C 20.15467071533203 13.54071998596191 20.54819107055664 12.38755035400391 21.38610076904297 11.59527969360352 L 21.39275169372559 11.58899021148682 C 21.69521141052246 11.30300045013428 21.86178016662598 10.916259765625 21.86178016662598 10.5 C 21.86178016662598 10.083740234375 21.69521141052246 9.696999549865723 21.39272117614746 9.410980224609375 L 21.38613128662109 9.404749870300293 C 20.54819107055664 8.612449645996094 20.15467071533203 7.459280014038086 20.33348083496094 6.320019721984863 C 20.46141052246094 5.504969596862793 19.9025707244873 4.736709594726562 19.08771133422852 4.607450485229492 L 18.66030120849609 4.539640426635742 C 17.60843086242676 4.372779846191406 16.70160102844238 3.747020721435547 16.17233085632324 2.822799682617188 L 15.96979141235352 2.469110488891602 C 15.70335102081299 2.003820419311523 15.20449066162109 1.714780807495117 14.6679105758667 1.714780807495117 C 14.45461082458496 1.714780807495117 14.24698066711426 1.759849548339844 14.05078125 1.848739624023438 L 13.4438304901123 2.123720169067383 C 12.98715114593506 2.330619812011719 12.50137138366699 2.435529708862305 12.00001049041748 2.435529708862305 C 11.49863052368164 2.435529708862305 11.01286125183105 2.330619812011719 10.55618095397949 2.123720169067383 L 9.949251174926758 1.848739624023438 C 9.753010749816895 1.75984001159668 9.545391082763672 1.71476936340332 9.332160949707031 1.714780807495117 M 9.332103729248047 0.7147846221923828 C 9.677887916564941 0.7147636413574219 10.02838325500488 0.7867565155029297 10.36191082000732 0.9378604888916016 L 10.9688606262207 1.212839126586914 C 11.62423133850098 1.509759902954102 12.37578105926514 1.509759902954102 13.03116130828857 1.212839126586914 L 13.63810062408447 0.9378604888916016 C 14.81175136566162 0.4061393737792969 16.19728088378906 0.8540401458740234 16.83758163452148 1.972169876098633 L 17.04012107849121 2.325859069824219 C 17.41618156433105 2.982549667358398 18.06957054138184 3.433429718017578 18.81697082519531 3.551990509033203 L 19.24440002441406 3.619800567626953 C 20.60577011108398 3.835760116577148 21.53512191772461 5.113360404968262 21.32139015197754 6.475079536437988 C 21.1937313079834 7.288439750671387 21.47493171691895 8.112480163574219 22.07317161560059 8.678130149841309 L 22.07979011535645 8.684390068054199 C 23.12245178222656 9.670260429382324 23.12245178222656 11.32973957061768 22.07979011535645 12.3156099319458 L 22.07317161560059 12.32186985015869 C 21.47493171691895 12.88751983642578 21.1937313079834 13.7115592956543 21.32139015197754 14.5249195098877 C 21.53512191772461 15.88664054870605 20.60577011108398 17.16423988342285 19.24440002441406 17.38019943237305 L 18.81696128845215 17.4480094909668 C 18.06957054138184 17.56657028198242 17.41618156433105 18.01745986938477 17.04012107849121 18.67414093017578 L 16.83758163452148 19.02783966064453 C 16.19728088378906 20.14595985412598 14.81175136566162 20.5938606262207 13.63810062408447 20.0621395111084 L 13.03114128112793 19.78716087341309 C 12.37577152252197 19.4902400970459 11.6242208480835 19.49024963378906 10.96885108947754 19.78716087341309 L 10.36190128326416 20.0621395111084 C 9.188250541687012 20.5938606262207 7.80272102355957 20.14595985412598 7.162420272827148 19.02783966064453 L 6.959880828857422 18.67414093017578 C 6.583820343017578 18.01745986938477 5.930431365966797 17.56657028198242 5.18303108215332 17.4480094909668 L 4.755590438842773 17.38019943237305 C 3.394220352172852 17.16423988342285 2.464870452880859 15.88664054870605 2.678600311279297 14.5249195098877 C 2.806270599365234 13.7115592956543 2.525070190429688 12.88751983642578 1.926830291748047 12.32186985015869 L 1.920211791992188 12.3156099319458 C 0.8775405883789062 11.32973957061768 0.8775405883789062 9.670260429382324 1.920211791992188 8.684390068054199 L 1.926830291748047 8.678130149841309 C 2.525070190429688 8.112480163574219 2.806270599365234 7.288430213928223 2.678611755371094 6.475079536437988 C 2.464881896972656 5.113349914550781 3.394231796264648 3.835760116577148 4.75560188293457 3.619789123535156 L 5.183040618896484 3.551990509033203 C 5.930431365966797 3.433420181274414 6.583820343017578 2.982540130615234 6.959880828857422 2.325859069824219 L 7.162431716918945 1.972160339355469 C 7.620771408081055 1.171787261962891 8.461108207702637 0.7148342132568359 9.332103729248047 0.7147846221923828 Z" stroke="none" fill="#fff"/>
  </g>
  <text id="i" transform="translate(11 13)" fill="#e3e3e3" font-size="8" font-family="Poppins-Bold, Poppins" font-weight="700" letter-spacing="0.15em"><tspan x="0" y="0">i</tspan></text>
</svg>
