<svg xmlns="http://www.w3.org/2000/svg" xmlns:xlink="http://www.w3.org/1999/xlink" width="50.325" height="46.36" viewBox="0 0 50.325 46.36">
  <defs>
    <linearGradient id="linear-gradient" x1="0.5" x2="0.5" y2="1" gradientUnits="objectBoundingBox">
      <stop offset="0" stop-color="#fff"/>
      <stop offset="1" stop-color="#fff" stop-opacity="0"/>
    </linearGradient>
  </defs>
  <g id="Group_524" data-name="Group 524" transform="translate(-8532.873 -727.04)">
    <g id="Light" transform="translate(8532.873 727.04)">
      <rect id="Rectangle_1606" data-name="Rectangle 1606" width="35" height="2" rx="1" transform="translate(6.663)" fill="#fff"/>
      <path id="Path_1078" data-name="Path 1078" d="M45.638,47,38.044,91.36H88.369L79,47Z" transform="translate(-38.044 -45)" opacity="0.5" fill="url(#linear-gradient)"/>
    </g>
    <g id="Group_439" data-name="Group 439" transform="translate(-153.458 44.178)">
      <path id="Path_1108" data-name="Path 1108" d="M403.829,154.079a.58.58,0,0,0-.375-.4.592.592,0,0,0-.585.094l-.234.187a2.08,2.08,0,0,0-.819,2.129l.257,1.966a1.856,1.856,0,0,0-1.1.866l-1.1,1.966a3.777,3.777,0,0,0-2.083,3.6v.281h.585v-.328a3.108,3.108,0,0,1,1.825-3.065.343.343,0,0,0,.14-.117l1.147-2.036a1.442,1.442,0,0,1,1.544-.632l-1.685,3,.515.281,1.872-3.3a.277.277,0,0,0,.023-.234.283.283,0,0,0-.164-.164,1.852,1.852,0,0,0-.936-.164l-.257-1.942v-.023a1.481,1.481,0,0,1,.608-1.544l.234-.187h.023l1.17,6.2a1.737,1.737,0,0,1-.468,1.615l-3.276,3.229h-3.908a.31.31,0,0,0-.3.3v1.685a.31.31,0,0,0,.3.3h5.288a.31.31,0,0,0,.3-.3v-1.685a.31.31,0,0,0-.3-.3h-.562l2.855-2.808A2.337,2.337,0,0,0,405,160.4Zm-2.036,12.894h-4.727v-1.1h4.727Z" transform="translate(8316.453 554.528)" fill="#fff" opacity="0.5"/>
      <path id="Path_1109" data-name="Path 1109" d="M101.453,163.267h-.562a.31.31,0,0,0-.3.3v1.685a.31.31,0,0,0,.3.3h5.288a.31.31,0,0,0,.3-.3v-1.685a.31.31,0,0,0-.3-.3h-3.908l-3.253-3.229a1.794,1.794,0,0,1-.492-1.638l1.17-6.2h.023l.234.187a1.48,1.48,0,0,1,.608,1.544v.023l-.257,1.942a2.63,2.63,0,0,0-.936.164.283.283,0,0,0-.164.164.278.278,0,0,0,.023.234l1.872,3.3.515-.281-1.685-3a1.457,1.457,0,0,1,1.544.632l1.147,2.036a.239.239,0,0,0,.14.117,3.108,3.108,0,0,1,1.825,3.065v.328h.562v-.281a3.688,3.688,0,0,0-2.083-3.6l-1.1-1.966a1.947,1.947,0,0,0-1.1-.866l.257-1.966a2.079,2.079,0,0,0-.819-2.129l-.234-.187a.655.655,0,0,0-.585-.094.571.571,0,0,0-.374.421l-1.17,6.225a2.444,2.444,0,0,0,.632,2.176Zm4.446,1.685h-4.727v-1.1h4.7v1.1Z" transform="translate(8602.566 556.549)" fill="#fff" opacity="0.5"/>
      <path id="Path_1110" data-name="Path 1110" d="M186.519,80.381v-3.6l1.1-.351a.3.3,0,0,0,.211-.281.275.275,0,0,0-.211-.281l-7.09-2.34a.259.259,0,0,0-.187,0l-7.09,2.34a.3.3,0,0,0-.211.281.275.275,0,0,0,.211.281l2.129.7v2.6a.3.3,0,0,0,.187.281l4.774,1.661c.023,0,.07.023.094.023a.141.141,0,0,0,.094-.023l4.774-1.685a.282.282,0,0,0,.187-.281V77.1l.445-.14V80.4h.585Zm-6.084-6.271,6.154,2.036-6.154,2.012-6.154-2.036Zm4.469,5.382-4.469,1.591-4.469-1.591v-2.2l4.376,1.451c.023,0,.07.023.094.023a.141.141,0,0,0,.094-.023l4.376-1.451Z" transform="translate(8530.557 631.316)" fill="#fff" opacity="0.5"/>
    </g>
  </g>
</svg>
